<svg xmlns="http://www.w3.org/2000/svg" width="156.3" height="56" viewBox="0 0 156.3 56"><g transform="translate(-446 -699)"><g transform="translate(448 701)" fill="none" stroke="#245996" stroke-width="2"><rect width="152.3" height="52" stroke="none"/><rect x="-1" y="-1" width="154.3" height="54" fill="none"/></g><g transform="translate(4.4 -1)"><g transform="translate(465.58 711.986)"><g transform="translate(0 0)"><path d="M68,15.979a6.8,6.8,0,0,1,3.247-5.726,7.023,7.023,0,0,0-5.5-2.98c-2.344-.237-4.569,1.379-5.758,1.379s-3.02-1.344-4.962-1.309a7.358,7.358,0,0,0-6.221,3.77c-2.652,4.6-.679,11.42,1.9,15.153,1.263,1.827,2.769,3.882,4.747,3.808,1.9-.073,2.624-1.233,4.927-1.233s2.949,1.233,4.965,1.195c2.051-.038,3.348-1.862,4.6-3.694a16.583,16.583,0,0,0,2.083-4.277A6.642,6.642,0,0,1,68,15.979ZM64.212,4.8A6.628,6.628,0,0,0,65.779,0a6.742,6.742,0,0,0-4.43,2.278,6.305,6.305,0,0,0-1.6,4.653A5.578,5.578,0,0,0,64.212,4.8Z" transform="translate(-47.55 0)" fill="#245996"/></g></g><path d="M6.338,0H5.43L4.688-1.963H1.719L1.021,0H.107L2.793-7h.85ZM4.419-2.7,3.32-5.684a2.857,2.857,0,0,1-.107-.469h-.02a2.615,2.615,0,0,1-.112.469L1.992-2.7ZM11-5,9,0H8.218L6.323-5H7.2l1.27,3.633a3.261,3.261,0,0,1,.176.7h.02a3.3,3.3,0,0,1,.156-.679L10.151-5Zm4.438,5h-.8V-.781h-.02a1.676,1.676,0,0,1-1.538.9,1.644,1.644,0,0,1-1.169-.4,1.37,1.37,0,0,1-.422-1.05q0-1.4,1.65-1.631l1.5-.21q0-1.274-1.03-1.274a2.461,2.461,0,0,0-1.631.615v-.82a3.1,3.1,0,0,1,1.7-.469q1.763,0,1.763,1.865Zm-.8-2.529-1.206.166a1.958,1.958,0,0,0-.84.276.8.8,0,0,0-.283.7.763.763,0,0,0,.261.6,1.009,1.009,0,0,0,.7.232,1.285,1.285,0,0,0,.984-.417,1.492,1.492,0,0,0,.388-1.057Zm2.72-3.74a.507.507,0,0,1-.366-.146.494.494,0,0,1-.151-.371.5.5,0,0,1,.151-.374.5.5,0,0,1,.366-.149.517.517,0,0,1,.374.149.5.5,0,0,1,.154.374.5.5,0,0,1-.154.366A.513.513,0,0,1,17.354-6.27ZM17.744,0h-.8V-5h.8Zm2.422,0h-.8V-7.4h.8Zm5.2,0h-.8V-.781h-.02a1.676,1.676,0,0,1-1.538.9,1.644,1.644,0,0,1-1.169-.4,1.37,1.37,0,0,1-.422-1.05q0-1.4,1.65-1.631l1.5-.21q0-1.274-1.03-1.274a2.461,2.461,0,0,0-1.631.615v-.82a3.1,3.1,0,0,1,1.7-.469q1.763,0,1.763,1.865Zm-.8-2.529-1.206.166a1.958,1.958,0,0,0-.84.276.8.8,0,0,0-.283.7.763.763,0,0,0,.261.6,1.009,1.009,0,0,0,.7.232,1.285,1.285,0,0,0,.984-.417,1.492,1.492,0,0,0,.388-1.057ZM27.7-.723h-.02V0h-.8V-7.4h.8v3.281h.02a1.894,1.894,0,0,1,1.729-1,1.833,1.833,0,0,1,1.506.671,2.772,2.772,0,0,1,.544,1.8,3.1,3.1,0,0,1-.61,2.009,2.032,2.032,0,0,1-1.67.754A1.645,1.645,0,0,1,27.7-.723Zm-.02-2.017v.7a1.487,1.487,0,0,0,.4,1.052A1.338,1.338,0,0,0,29.1-.557a1.34,1.34,0,0,0,1.14-.557,2.554,2.554,0,0,0,.413-1.548,2.016,2.016,0,0,0-.386-1.309,1.277,1.277,0,0,0-1.045-.474,1.419,1.419,0,0,0-1.123.486A1.784,1.784,0,0,0,27.676-2.739ZM33.555,0h-.8V-7.4h.8Zm5.64-2.3h-3.53a1.87,1.87,0,0,0,.449,1.289,1.549,1.549,0,0,0,1.182.454,2.457,2.457,0,0,0,1.553-.557v.752A2.9,2.9,0,0,1,37.1.117a2.113,2.113,0,0,1-1.665-.681,2.788,2.788,0,0,1-.605-1.917,2.734,2.734,0,0,1,.662-1.9,2.121,2.121,0,0,1,1.643-.735,1.88,1.88,0,0,1,1.519.635,2.647,2.647,0,0,1,.537,1.763Zm-.82-.679a1.629,1.629,0,0,0-.334-1.079,1.14,1.14,0,0,0-.916-.386,1.294,1.294,0,0,0-.962.405,1.839,1.839,0,0,0-.488,1.06Zm6.86,3.1a2.319,2.319,0,0,1-1.77-.7A2.6,2.6,0,0,1,42.8-2.441a2.7,2.7,0,0,1,.688-1.968,2.475,2.475,0,0,1,1.86-.708,2.243,2.243,0,0,1,1.746.688,2.73,2.73,0,0,1,.627,1.909A2.686,2.686,0,0,1,47.048-.6,2.37,2.37,0,0,1,45.234.117Zm.059-4.561a1.523,1.523,0,0,0-1.221.525,2.156,2.156,0,0,0-.449,1.448,2.039,2.039,0,0,0,.454,1.4,1.543,1.543,0,0,0,1.216.513,1.464,1.464,0,0,0,1.194-.5A2.182,2.182,0,0,0,46.9-2.49a2.22,2.22,0,0,0-.417-1.445A1.457,1.457,0,0,0,45.293-4.443ZM53.154,0h-.8V-2.852q0-1.592-1.162-1.592a1.261,1.261,0,0,0-.994.452,1.674,1.674,0,0,0-.393,1.14V0H49V-5h.8v.83h.02a1.8,1.8,0,0,1,1.641-.947,1.53,1.53,0,0,1,1.255.53,2.36,2.36,0,0,1,.435,1.531Zm6.567-.049a1.544,1.544,0,0,1-.747.156q-1.313,0-1.313-1.465V-4.316H56.8V-5h.859V-6.221l.8-.259V-5h1.26v.684h-1.26V-1.5a1.168,1.168,0,0,0,.171.718.682.682,0,0,0,.566.215.842.842,0,0,0,.522-.166ZM64.941,0h-.8V-2.881q0-1.563-1.162-1.562a1.267,1.267,0,0,0-.986.452,1.683,1.683,0,0,0-.4,1.16V0h-.8V-7.4h.8V-4.17h.02a1.819,1.819,0,0,1,1.641-.947q1.689,0,1.689,2.036Zm5.527-2.3h-3.53a1.87,1.87,0,0,0,.449,1.289,1.549,1.549,0,0,0,1.182.454,2.457,2.457,0,0,0,1.553-.557v.752a2.9,2.9,0,0,1-1.743.479,2.113,2.113,0,0,1-1.665-.681,2.788,2.788,0,0,1-.605-1.917,2.734,2.734,0,0,1,.662-1.9,2.121,2.121,0,0,1,1.643-.735,1.88,1.88,0,0,1,1.519.635,2.647,2.647,0,0,1,.537,1.763Zm-.82-.679a1.629,1.629,0,0,0-.334-1.079,1.14,1.14,0,0,0-.916-.386,1.294,1.294,0,0,0-.962.405,1.839,1.839,0,0,0-.488,1.06Z" transform="translate(502 721)" fill="#245996"/><text transform="translate(502 741)" fill="#245996" font-size="16" font-family="Roboto-Medium, Roboto" font-weight="500"><tspan x="0" y="0">App Store</tspan></text></g></g></svg>