<svg xmlns="http://www.w3.org/2000/svg" width="156.3" height="56" viewBox="0 0 156.3 56"><g transform="translate(-151 -693)"><g transform="translate(153 695)" fill="none" stroke="#245996" stroke-width="2"><rect width="152.3" height="52" stroke="none"/><rect x="-1" y="-1" width="154.3" height="54" fill="none"/></g><g transform="translate(164.99 709.945)"><path d="M952.422-290.192a1.7,1.7,0,0,1-.54-.089l11.806-11.806,3.823,3.691-.02.011-.031.018c-2.09,1.165-5.123,2.861-9.546,5.336l-4.555,2.552a1.752,1.752,0,0,1-.283.153,1.648,1.648,0,0,1-.654.133Zm-1.08-.385h0a1.67,1.67,0,0,1-.625-1.319v-20.811a1.673,1.673,0,0,1,.615-1.311L963.263-302.5l-11.921,11.92Zm16.707-8.121h0l-3.942-3.807L967.7-306.1c3.1,1.736,4.131,2.307,4.141,2.314a1.676,1.676,0,0,1,.868,1.479,1.676,1.676,0,0,1-.868,1.479c-.043.024-1.06.592-3.79,2.124Zm-4.368-4.218h0l-11.81-11.405a1.7,1.7,0,0,1,.547-.09,1.7,1.7,0,0,1,.938.285c6.386,3.575,10.9,6.1,13.807,7.728l-3.482,3.482Z" transform="translate(-950.717 314.411)" fill="#245996"/></g><path d="M8.345-.206a6.373,6.373,0,0,1-3.19.811,4.359,4.359,0,0,1-3.3-1.316A4.826,4.826,0,0,1,.6-4.193,4.955,4.955,0,0,1,2-7.824,4.769,4.769,0,0,1,5.541-9.243a6.033,6.033,0,0,1,2.612.505V-7.5a5.016,5.016,0,0,0-2.738-.731A3.421,3.421,0,0,0,2.79-7.13,4.035,4.035,0,0,0,1.766-4.273a4.037,4.037,0,0,0,.95,2.841A3.331,3.331,0,0,0,5.295-.4,3.984,3.984,0,0,0,7.229-.843V-3.515H5.142v-1.01h3.2Zm7.536-2.479h-4.8A2.545,2.545,0,0,0,11.688-.93,2.108,2.108,0,0,0,13.3-.312a3.344,3.344,0,0,0,2.113-.758V-.046a3.95,3.95,0,0,1-2.372.651,2.876,2.876,0,0,1-2.266-.927A3.794,3.794,0,0,1,9.947-2.93a3.721,3.721,0,0,1,.9-2.588,2.887,2.887,0,0,1,2.236-1,2.558,2.558,0,0,1,2.067.864,3.6,3.6,0,0,1,.731,2.4Zm-1.116-.924a2.217,2.217,0,0,0-.455-1.469A1.551,1.551,0,0,0,13.063-5.6a1.76,1.76,0,0,0-1.309.552,2.5,2.5,0,0,0-.665,1.442ZM20.686.379a2.1,2.1,0,0,1-1.017.213q-1.788,0-1.788-1.994V-5.429h-1.17v-.93h1.17V-8.021l1.09-.352v2.014h1.715v.93H18.971v3.834a1.59,1.59,0,0,0,.233.977.928.928,0,0,0,.771.292,1.146,1.146,0,0,0,.711-.226Zm5.742-8.466a.691.691,0,0,1-.5-.2.673.673,0,0,1-.206-.505.684.684,0,0,1,.206-.508.685.685,0,0,1,.5-.2.7.7,0,0,1,.508.2.678.678,0,0,1,.209.508.674.674,0,0,1-.209.5A.7.7,0,0,1,26.427-8.087ZM26.959.446h-1.09v-6.8h1.09ZM32.322.379a2.1,2.1,0,0,1-1.017.213q-1.788,0-1.788-1.994V-5.429h-1.17v-.93h1.17V-8.021l1.09-.352v2.014h1.715v.93H30.607v3.834a1.59,1.59,0,0,0,.233.977.928.928,0,0,0,.771.292,1.146,1.146,0,0,0,.711-.226Zm8.028.226A3.156,3.156,0,0,1,37.94-.348a3.532,3.532,0,0,1-.9-2.529,3.68,3.68,0,0,1,.937-2.678,3.369,3.369,0,0,1,2.532-.964,3.052,3.052,0,0,1,2.376.937,3.715,3.715,0,0,1,.854,2.6,3.656,3.656,0,0,1-.92,2.608A3.225,3.225,0,0,1,40.349.605Zm.08-6.207a2.073,2.073,0,0,0-1.661.714,2.934,2.934,0,0,0-.611,1.97,2.775,2.775,0,0,0,.618,1.907,2.1,2.1,0,0,0,1.655.7A1.992,1.992,0,0,0,42.054-1a2.97,2.97,0,0,0,.568-1.947,3.021,3.021,0,0,0-.568-1.967A1.984,1.984,0,0,0,40.429-5.6ZM51.128.446h-1.09V-3.435q0-2.166-1.582-2.166a1.716,1.716,0,0,0-1.352.615,2.278,2.278,0,0,0-.535,1.552V.446H45.48v-6.8h1.09v1.13H46.6a2.456,2.456,0,0,1,2.233-1.289,2.082,2.082,0,0,1,1.708.721,3.212,3.212,0,0,1,.591,2.083Z" transform="translate(194.897 716.078)" fill="#245996"/><path d="M11.614-4.315A4.376,4.376,0,0,1,9.633-2.9a8.083,8.083,0,0,1-2.877.479,5.669,5.669,0,0,1-2.931-.751A5,5,0,0,1,1.858-5.323a7.517,7.517,0,0,1-.719-3.261V-9.616a6.971,6.971,0,0,1,1.429-4.663,4.957,4.957,0,0,1,3.989-1.678,5.245,5.245,0,0,1,3.492,1.09,4.7,4.7,0,0,1,1.556,3.135H9.362A2.524,2.524,0,0,0,6.6-14.112,2.7,2.7,0,0,0,4.264-13a5.641,5.641,0,0,0-.828,3.249v1.012a5.357,5.357,0,0,0,.9,3.312,2.969,2.969,0,0,0,2.5,1.179,3.3,3.3,0,0,0,2.5-.8V-7.625H6.621V-9.362h4.994Zm1.891-3.275a5.772,5.772,0,0,1,.57-2.592,4.162,4.162,0,0,1,1.6-1.773,4.512,4.512,0,0,1,2.37-.62A4.276,4.276,0,0,1,21.262-11.3,5.017,5.017,0,0,1,22.6-7.915l.009.516a5.823,5.823,0,0,1-.556,2.587,4.112,4.112,0,0,1-1.592,1.764,4.545,4.545,0,0,1-2.393.624A4.246,4.246,0,0,1,14.749-3.8a5.284,5.284,0,0,1-1.244-3.677Zm2.2.19a3.944,3.944,0,0,0,.624,2.366,2.029,2.029,0,0,0,1.737.855A2.007,2.007,0,0,0,19.8-5.047a4.356,4.356,0,0,0,.62-2.542,3.893,3.893,0,0,0-.638-2.352,2.036,2.036,0,0,0-1.732-.868,2.018,2.018,0,0,0-1.71.855A4.274,4.274,0,0,0,15.7-7.4Zm8.35-.19a5.772,5.772,0,0,1,.57-2.592,4.162,4.162,0,0,1,1.6-1.773,4.512,4.512,0,0,1,2.37-.62A4.276,4.276,0,0,1,31.81-11.3a5.017,5.017,0,0,1,1.334,3.383l.009.516A5.823,5.823,0,0,1,32.6-4.812a4.112,4.112,0,0,1-1.592,1.764,4.545,4.545,0,0,1-2.393.624A4.246,4.246,0,0,1,25.3-3.8a5.284,5.284,0,0,1-1.244-3.677Zm2.2.19a3.944,3.944,0,0,0,.624,2.366,2.029,2.029,0,0,0,1.737.855,2.007,2.007,0,0,0,1.732-.868,4.356,4.356,0,0,0,.62-2.542,3.893,3.893,0,0,0-.638-2.352,2.036,2.036,0,0,0-1.732-.868,2.018,2.018,0,0,0-1.71.855A4.274,4.274,0,0,0,26.251-7.4Zm8.377-.172A5.725,5.725,0,0,1,35.7-11.212a3.441,3.441,0,0,1,2.845-1.361,3.223,3.223,0,0,1,2.632,1.167l.1-.986h1.981V-2.9a3.944,3.944,0,0,1-1.2,3.04,4.565,4.565,0,0,1-3.234,1.113A5.213,5.213,0,0,1,36.723.8,3.737,3.737,0,0,1,35.162-.37L36.2-1.691a3.142,3.142,0,0,0,2.5,1.2,2.428,2.428,0,0,0,1.728-.593,2.271,2.271,0,0,0,.633-1.741v-.66a3.236,3.236,0,0,1-2.533,1.058A3.432,3.432,0,0,1,35.718-3.79,5.91,5.91,0,0,1,34.628-7.571Zm2.189.19a3.941,3.941,0,0,0,.6,2.32,1.934,1.934,0,0,0,1.669.846,2.116,2.116,0,0,0,1.972-1.14V-9.661a2.085,2.085,0,0,0-1.954-1.113,1.942,1.942,0,0,0-1.687.859A4.413,4.413,0,0,0,36.818-7.381ZM47.854-2.6h-2.2V-16.5h2.2Zm6.7.181A4.548,4.548,0,0,1,51.17-3.74a4.775,4.775,0,0,1-1.3-3.505v-.271a5.873,5.873,0,0,1,.565-2.619,4.3,4.3,0,0,1,1.588-1.8,4.2,4.2,0,0,1,2.28-.642A3.842,3.842,0,0,1,57.394-11.3a5.394,5.394,0,0,1,1.09,3.61V-6.8h-6.4a2.939,2.939,0,0,0,.81,1.918,2.431,2.431,0,0,0,1.787.706A2.977,2.977,0,0,0,57.145-5.4L58.33-4.269a3.957,3.957,0,0,1-1.57,1.361A4.914,4.914,0,0,1,54.558-2.424ZM54.3-10.81a1.851,1.851,0,0,0-1.461.633,3.282,3.282,0,0,0-.71,1.764h4.188v-.163a2.672,2.672,0,0,0-.588-1.669A1.837,1.837,0,0,0,54.3-10.81ZM67.3-7.49V-2.6H65.015V-15.776h5.039a5.1,5.1,0,0,1,3.505,1.15,3.867,3.867,0,0,1,1.3,3.043,3.739,3.739,0,0,1-1.271,3.016,5.342,5.342,0,0,1-3.56,1.078Zm0-1.845h2.75a2.709,2.709,0,0,0,1.864-.574,2.111,2.111,0,0,0,.642-1.66,2.278,2.278,0,0,0-.651-1.705,2.51,2.51,0,0,0-1.791-.656H67.3ZM78.983-2.6h-2.2V-16.5h2.2Zm8.241,0a3.392,3.392,0,0,1-.253-.914A3.422,3.422,0,0,1,84.4-2.424,3.453,3.453,0,0,1,82-3.265a2.692,2.692,0,0,1-.932-2.081,2.779,2.779,0,0,1,1.162-2.4,5.633,5.633,0,0,1,3.325-.837H86.9v-.642a1.715,1.715,0,0,0-.425-1.217A1.685,1.685,0,0,0,85.18-10.9a1.936,1.936,0,0,0-1.23.375,1.162,1.162,0,0,0-.479.954h-2.2a2.44,2.44,0,0,1,.534-1.506,3.556,3.556,0,0,1,1.452-1.1,5.1,5.1,0,0,1,2.049-.4,4.107,4.107,0,0,1,2.741.864A3.081,3.081,0,0,1,89.1-9.281v4.415a5,5,0,0,0,.371,2.108V-2.6ZM84.809-4.188A2.5,2.5,0,0,0,86.034-4.5a2.115,2.115,0,0,0,.864-.85V-7.2H85.713a3.24,3.24,0,0,0-1.836.425,1.377,1.377,0,0,0-.615,1.2,1.285,1.285,0,0,0,.421,1.009A1.629,1.629,0,0,0,84.809-4.188ZM94.823-5.753l1.99-6.64h2.343L95.266-1.121q-.9,2.47-3.04,2.47a3.919,3.919,0,0,1-1.058-.164V-.524l.416.027a2.14,2.14,0,0,0,1.253-.3A2.008,2.008,0,0,0,93.5-1.817l.317-.841-3.438-9.736h2.37Z" transform="translate(194.188 737.5)" fill="#245996"/></g></svg>