<svg height="512pt" viewBox="0 -15 512 512" width="512pt" xmlns="http://www.w3.org/2000/svg"><path d="m191 180h130v80h-130zm0 0"/><path d="m477 0h-442c-19.300781 0-35 15.699219-35 35v285h512v-285c0-19.300781-15.699219-35-35-35zm-45 290h-352c-8.285156 0-15-6.714844-15-15s6.714844-15 15-15h21v-80h-21c-6.929688 0-12.960938-4.75-14.582031-11.488281-1.625-6.738281 1.582031-13.710938 7.753906-16.867188l176-90c4.289063-2.191406 9.367187-2.191406 13.65625 0l176 90c6.171875 3.15625 9.378906 10.128907 7.753906 16.867188-1.621093 6.738281-7.652343 11.488281-14.582031 11.488281h-21v80h21c8.285156 0 15 6.714844 15 15s-6.714844 15-15 15zm0 0"/><path d="m354.570312 440h-197.140624l-8.402344 21.550781c-1.800782 4.613281-1.207032 9.820313 1.589844 13.914063 2.792968 4.089844 7.429687 6.535156 12.382812 6.535156h186c4.957031 0 9.589844-2.445312 12.386719-6.535156 2.792969-4.09375 3.390625-9.300782 1.589843-13.914063zm0 0"/><path d="m0 350v25c0 19.300781 15.699219 35 35 35h442c19.300781 0 35-15.699219 35-35v-25zm0 0"/><path d="m131 180h30v80h-30zm0 0"/><path d="m351 180h30v80h-30zm0 0"/><path d="m256 91.847656-113.71875 58.152344h227.4375zm0 0"/></svg>