<svg xmlns="http://www.w3.org/2000/svg" width="23.4" height="20" viewBox="0 0 23.4 20"><path d="M24483.74,20043.8h0v-2.084a9.938,9.938,0,0,0,0-15.834v-2.082a11.668,11.668,0,0,1,0,20Zm-6.053-.156-5.471-5.527H24466l.057-8.639,6.16.059,5.471-5.527v19.635Zm-9.914-12.42h0l-.035,5.166h5.2l.506.514,2.514,2.539v-11.229l-2.514,2.541-.514.518-.73-.006-4.428-.043Zm12.477,8.326h0v-1.959a4.378,4.378,0,0,0,0-7.295v-1.957a6.057,6.057,0,0,1,1.488.918,6.107,6.107,0,0,1,1.168,8.08,6.165,6.165,0,0,1-2.656,2.213Z" transform="translate(-24466.002 -20023.805)" fill="#fff"/></svg>