<svg xmlns="http://www.w3.org/2000/svg" width="57.332" height="40.109" viewBox="0 0 57.332 40.109"><g transform="translate(0.001 -91.922)"><g transform="translate(0 91.922)"><path d="M49.433,171.786a.7.7,0,0,0-.172-.5l-5.512-6.271a.7.7,0,0,0-.982-.063,28.675,28.675,0,0,0-6.249,7.8.7.7,0,0,0,.277.944l7.326,4a.7.7,0,0,0,.944-.277,18.96,18.96,0,0,1,4.133-5.16A.693.693,0,0,0,49.433,171.786Z" transform="translate(-33.02 -157.95)" fill="#212121"/><path d="M162.826,104.636a.7.7,0,0,0,.941.289,18.735,18.735,0,0,1,6.279-2.02.7.7,0,0,0,.6-.783l-1.122-8.273a.7.7,0,0,0-.783-.6,28.441,28.441,0,0,0-9.534,3.067.7.7,0,0,0-.289.941Z" transform="translate(-143.954 -93.122)" fill="#212121"/><path d="M9.91,312.959l-8.058-2.186a.7.7,0,0,0-.854.489,28.742,28.742,0,0,0-1,7.522c0,.436.01.874.032,1.338a.7.7,0,0,0,.695.664H.759L9.1,320.4a.7.7,0,0,0,.663-.727c-.015-.313-.022-.6-.022-.888a18.991,18.991,0,0,1,.658-4.971A.7.7,0,0,0,9.91,312.959Z" transform="translate(0 -290.249)" fill="#212121"/><path d="M330.278,94.622a28.454,28.454,0,0,0-9.642-2.7.7.7,0,0,0-.76.625l-.8,8.311a.7.7,0,0,0,.626.76,18.743,18.743,0,0,1,6.351,1.776.7.7,0,0,0,.929-.325l3.625-7.521A.7.7,0,0,0,330.278,94.622Z" transform="translate(-289.178 -91.922)" fill="#212121"/><path d="M443.641,165.6a.7.7,0,0,0-.078-.527,28.689,28.689,0,0,0-6.543-7.559.7.7,0,0,0-.979.1l-5.268,6.477a.7.7,0,0,0,.1.979,18.97,18.97,0,0,1,4.328,5,.7.7,0,0,0,.954.24l7.167-4.284A.7.7,0,0,0,443.641,165.6Z" transform="translate(-390.277 -151.232)" fill="#212121"/><path d="M507.807,300.217a.7.7,0,0,0-.872-.456l-7.967,2.5a.7.7,0,0,0-.456.872,18.936,18.936,0,0,1,.862,5.667c0,.285-.007.576-.022.888a.7.7,0,0,0,.663.727l8.34.385h.033a.7.7,0,0,0,.695-.664c.021-.464.032-.9.032-1.338A28.66,28.66,0,0,0,507.807,300.217Z" transform="translate(-451.782 -280.262)" fill="#212121"/><path d="M182.471,315.375c-.12,0-.239,0-.358.01l-11.3-6.669a.716.716,0,0,0-1,.954l6.166,11.556a6.648,6.648,0,0,0-.035.674,6.526,6.526,0,1,0,6.526-6.526Z" transform="translate(-153.829 -288.317)" fill="#212121"/></g></g></svg>