<svg xmlns="http://www.w3.org/2000/svg" width="22.553" height="20" viewBox="0 0 22.553 20"><path d="M20367.023,20062.756a1.242,1.242,0,0,1,2.295-.662,8.538,8.538,0,0,0,5.635-2.941,10.739,10.739,0,0,0,1.4-2.01v-4.729a8.252,8.252,0,0,0-16.174.033v5.494H20357v-5.725h1.373a10.072,10.072,0,0,1,19.8,0h1.379v5.725h-2.361a11.611,11.611,0,0,1-1.367,1.918,9.8,9.8,0,0,1-6.4,3.346,1.242,1.242,0,0,1-2.4-.449Zm-5.795-8.684a7.054,7.054,0,1,1,7.053,7.051A7.053,7.053,0,0,1,20361.229,20054.072Zm1.68,0a5.376,5.376,0,1,0,5.373-5.377A5.373,5.373,0,0,0,20362.908,20054.072Zm5.373-7.055Z" transform="translate(-20356.996 -20043.998)" fill="#231f20"/></svg>