<svg xmlns="http://www.w3.org/2000/svg" width="40.025" height="35.811" viewBox="0 0 40.025 35.811"><path d="M10.66-328.19H.72a4.76,4.76,0,0,1-3.79-1.94l-7.41-11.65a3.959,3.959,0,0,1,0-3.88l6.386-10.005a5.9,5.9,0,0,0-.043,3.1,9.332,9.332,0,0,0,1.137,3l4.58,7.22c-.042-.1-.075-.186-.1-.267l6.065,9.523h0L16.26-346.83v-.01a3.411,3.411,0,0,0,.145-2.987L21-342.62c.9,1.4,1.746,4.478,1.081,6.148.676-1.654-.173-4.741-1.081-6.148l-4.6-7.22v.008h0L7.37-364h9.95a4.694,4.694,0,0,1,3.77,1.93l7.44,11.67a3.949,3.949,0,0,1,0,3.87L22-336.29h0L21.19-335a4.373,4.373,0,0,1-3.625,1.925c-.074,0-.149,0-.224-.006H7.546l3.113,4.888ZM1.473-342.615-2.95-349.56c-.962-1.5-1.83-4.712-1-6.33l-.143.224c.033-.085.064-.155.094-.214l.85-1.291A4.384,4.384,0,0,1,.489-359.1H10.48L1.73-345.34a3.4,3.4,0,0,0-.255,2.724Z" transform="translate(10.988 364)" fill="#00244b"/></svg>