<svg xmlns="http://www.w3.org/2000/svg" width="31.999" height="31.999" viewBox="0 0 31.999 31.999"><g transform="translate(0.001 0)"><path d="M31.242,13.2,27.66,12.5a12.1,12.1,0,0,0-.943-2.269l1.994-2.991a.938.938,0,0,0-.117-1.183L25.942,3.4a.937.937,0,0,0-1.183-.117L21.768,5.281A12.094,12.094,0,0,0,19.5,4.338L18.794.756A.938.938,0,0,0,17.874,0h-3.75a.938.938,0,0,0-.92.756L12.5,4.338a12.1,12.1,0,0,0-2.269.943L7.238,3.287A.938.938,0,0,0,6.055,3.4L3.4,6.056a.938.938,0,0,0-.117,1.183L5.281,10.23A12.112,12.112,0,0,0,4.338,12.5L.755,13.2a.938.938,0,0,0-.756.92v3.75a.938.938,0,0,0,.756.92l3.582.706a12.1,12.1,0,0,0,.943,2.269L3.287,24.76A.938.938,0,0,0,3.4,25.943l2.651,2.651a.938.938,0,0,0,1.183.117l2.991-1.994a12.1,12.1,0,0,0,2.269.943l.706,3.582a.938.938,0,0,0,.92.756h3.75a.938.938,0,0,0,.92-.756L19.5,27.66a12.1,12.1,0,0,0,2.269-.943l2.991,1.994a.938.938,0,0,0,1.183-.117l2.651-2.652a.937.937,0,0,0,.117-1.183l-1.994-2.991A12.094,12.094,0,0,0,27.66,19.5l3.582-.706a.938.938,0,0,0,.756-.92v-3.75a.938.938,0,0,0-.756-.92Zm-1.119,3.9-3.4.669a.937.937,0,0,0-.729.695,10.238,10.238,0,0,1-1.185,2.853.937.937,0,0,0,.022,1.006l1.889,2.834L25.16,26.725l-2.834-1.889a.937.937,0,0,0-1.006-.021A10.235,10.235,0,0,1,18.467,26a.938.938,0,0,0-.7.729l-.669,3.4H14.895l-.669-3.4a.938.938,0,0,0-.7-.729,10.236,10.236,0,0,1-2.853-1.185.938.938,0,0,0-1.006.022L6.838,26.725,5.273,25.16l1.889-2.834a.938.938,0,0,0,.022-1.006A10.24,10.24,0,0,1,6,18.467a.937.937,0,0,0-.729-.695l-3.4-.669V14.9l3.4-.669a.938.938,0,0,0,.729-.7,10.244,10.244,0,0,1,1.185-2.853.938.938,0,0,0-.022-1.006L5.273,6.838,6.838,5.273,9.671,7.163a.938.938,0,0,0,1.006.022A10.243,10.243,0,0,1,13.531,6a.938.938,0,0,0,.7-.729l.669-3.4H17.1l.669,3.4a.938.938,0,0,0,.7.729A10.236,10.236,0,0,1,21.32,7.184a.938.938,0,0,0,1.006-.022L25.16,5.273l1.565,1.565L24.836,9.672a.938.938,0,0,0-.022,1.006A10.233,10.233,0,0,1,26,13.531a.937.937,0,0,0,.729.695l3.4.669Zm0,0" fill="#ffb600"/><path d="M129.437,121a8.437,8.437,0,1,0,8.437,8.437A8.447,8.447,0,0,0,129.437,121Zm0,15A6.562,6.562,0,1,1,136,129.437,6.57,6.57,0,0,1,129.437,136Zm0,0" transform="translate(-113.438 -113.438)" fill="#ffb600"/><path d="M185.687,181a4.687,4.687,0,1,0,4.687,4.687A4.693,4.693,0,0,0,185.687,181Zm0,7.5a2.812,2.812,0,1,1,2.812-2.812A2.816,2.816,0,0,1,185.687,188.5Zm0,0" transform="translate(-169.689 -169.688)" fill="#ffb600"/></g></svg>