<svg xmlns="http://www.w3.org/2000/svg" xmlns:xlink="http://www.w3.org/1999/xlink" width="34" height="19.838" viewBox="0 0 34 19.838"><defs><clipPath id="a"><rect width="34" height="19.838" fill="none"/></clipPath></defs><g clip-path="url(#a)"><rect width="34" height="6.351" fill="#4497b1"/><rect width="34" height="0.396" transform="translate(0 6.351)" fill="#bc0030"/><rect width="34" height="6.347" transform="translate(0 6.747)" fill="#fff"/><rect width="34" height="0.396" transform="translate(0 13.094)" fill="#bc0030"/><rect width="34" height="6.347" transform="translate(0 13.49)" fill="#50b63f"/><g clip-path="url(#a)"><path d="M624.776,373.691a2.38,2.38,0,1,1-2.381-2.382,2.381,2.381,0,0,1,2.381,2.382" transform="translate(-616.842 -370.513)" fill="#fff"/><path d="M625.43,373.686a1.983,1.983,0,1,1-1.981-1.987,1.98,1.98,0,0,1,1.981,1.987" transform="translate(-616.823 -370.508)" fill="#4497b1"/><path d="M628.318,371.309l-.146.455.225.071Z" transform="translate(-616.736 -370.513)" fill="#fff"/><path d="M628.317,371.309l.148.455-.228.071Z" transform="translate(-616.735 -370.513)" fill="#fff"/><path d="M628.772,371.633h-.479v.241Z" transform="translate(-616.734 -370.509)" fill="#fff"/><path d="M628.772,371.633l-.39.281-.137-.194Z" transform="translate(-616.735 -370.509)" fill="#fff"/><path d="M627.871,371.633l.384.281.141-.194Z" transform="translate(-616.739 -370.509)" fill="#fff"/><path d="M627.871,371.633h.477v.241Z" transform="translate(-616.739 -370.509)" fill="#fff"/><path d="M628.6,372.166l-.144-.455-.228.071Z" transform="translate(-616.735 -370.508)" fill="#fff"/><path d="M628.6,372.166l-.382-.281.137-.194Z" transform="translate(-616.735 -370.508)" fill="#fff"/><path d="M628.039,372.166l.388-.281-.14-.194Z" transform="translate(-616.737 -370.508)" fill="#fff"/><path d="M628.039,372.166l.148-.455.226.071Z" transform="translate(-616.737 -370.508)" fill="#fff"/><path d="M630.2,371.309l-.148.455.228.071Z" transform="translate(-616.711 -370.513)" fill="#fff"/><path d="M630.2,371.309l.144.455-.225.071Z" transform="translate(-616.71 -370.513)" fill="#fff"/><path d="M630.649,371.633h-.477v.241Z" transform="translate(-616.709 -370.509)" fill="#fff"/><path d="M630.649,371.633l-.386.281-.141-.194Z" transform="translate(-616.71 -370.509)" fill="#fff"/><path d="M629.75,371.633l.384.281.141-.194Z" transform="translate(-616.715 -370.509)" fill="#fff"/><path d="M629.75,371.633h.473v.241Z" transform="translate(-616.715 -370.509)" fill="#fff"/><path d="M630.475,372.166l-.146-.455-.224.071Z" transform="translate(-616.71 -370.508)" fill="#fff"/><path d="M630.476,372.166l-.384-.281.141-.194Z" transform="translate(-616.71 -370.508)" fill="#fff"/><path d="M629.918,372.166l.388-.281-.142-.194Z" transform="translate(-616.713 -370.508)" fill="#fff"/><path d="M629.918,372.166l.148-.455.228.071Z" transform="translate(-616.713 -370.508)" fill="#fff"/><path d="M632.08,371.309l-.148.455.224.071Z" transform="translate(-616.686 -370.513)" fill="#fff"/><path d="M632.079,371.309l.146.455-.23.071Z" transform="translate(-616.686 -370.513)" fill="#fff"/><path d="M632.529,371.633h-.475v.241Z" transform="translate(-616.685 -370.509)" fill="#fff"/><path d="M632.53,371.633l-.386.281L632,371.72Z" transform="translate(-616.685 -370.509)" fill="#fff"/><path d="M631.629,371.633l.384.281.142-.194Z" transform="translate(-616.69 -370.509)" fill="#fff"/><path d="M631.629,371.633h.475v.241Z" transform="translate(-616.69 -370.509)" fill="#fff"/><path d="M632.356,372.166l-.148-.455-.226.071Z" transform="translate(-616.686 -370.508)" fill="#fff"/><path d="M632.357,372.166l-.384-.281.136-.194Z" transform="translate(-616.686 -370.508)" fill="#fff"/><path d="M631.8,372.166l.384-.281-.138-.194Z" transform="translate(-616.688 -370.508)" fill="#fff"/><path d="M631.8,372.166l.146-.455.228.071Z" transform="translate(-616.688 -370.508)" fill="#fff"/><path d="M626.439,373.188l-.148.451.226.075Z" transform="translate(-616.76 -370.489)" fill="#fff"/><path d="M626.439,373.188l.146.451-.226.075Z" transform="translate(-616.759 -370.489)" fill="#fff"/><path d="M626.889,373.512h-.475v.237Z" transform="translate(-616.758 -370.484)" fill="#fff"/><path d="M626.89,373.512l-.384.277-.141-.19Z" transform="translate(-616.759 -370.484)" fill="#fff"/><path d="M625.99,373.512l.386.277.138-.19Z" transform="translate(-616.764 -370.484)" fill="#fff"/><path d="M625.99,373.512h.477v.237Z" transform="translate(-616.764 -370.484)" fill="#fff"/><path d="M626.716,374.041l-.144-.451-.226.075Z" transform="translate(-616.759 -370.483)" fill="#fff"/><path d="M626.716,374.041l-.382-.277.139-.19Z" transform="translate(-616.759 -370.484)" fill="#fff"/><path d="M626.16,374.041l.386-.277-.141-.19Z" transform="translate(-616.762 -370.484)" fill="#fff"/><path d="M626.16,374.041l.146-.451.228.075Z" transform="translate(-616.762 -370.483)" fill="#fff"/><path d="M628.318,373.188l-.146.451.225.075Z" transform="translate(-616.736 -370.489)" fill="#fff"/><path d="M628.317,373.188l.148.451-.228.075Z" transform="translate(-616.735 -370.489)" fill="#fff"/><path d="M628.772,373.512h-.479v.237Z" transform="translate(-616.734 -370.484)" fill="#fff"/><path d="M628.772,373.512l-.39.277-.137-.19Z" transform="translate(-616.735 -370.484)" fill="#fff"/><path d="M627.871,373.512l.384.277.141-.19Z" transform="translate(-616.739 -370.484)" fill="#fff"/><path d="M627.871,373.512h.477v.237Z" transform="translate(-616.739 -370.484)" fill="#fff"/><path d="M628.6,374.041l-.144-.451-.228.075Z" transform="translate(-616.735 -370.483)" fill="#fff"/><path d="M628.6,374.041l-.382-.277.137-.19Z" transform="translate(-616.735 -370.484)" fill="#fff"/><path d="M628.039,374.041l.388-.277-.14-.19Z" transform="translate(-616.737 -370.484)" fill="#fff"/><path d="M628.039,374.041l.148-.451.226.075Z" transform="translate(-616.737 -370.483)" fill="#fff"/><path d="M630.2,373.188l-.148.451.228.075Z" transform="translate(-616.711 -370.489)" fill="#fff"/><path d="M630.2,373.188l.144.451-.225.075Z" transform="translate(-616.71 -370.489)" fill="#fff"/><path d="M630.649,373.512h-.477v.237Z" transform="translate(-616.709 -370.484)" fill="#fff"/><path d="M630.649,373.512l-.386.277-.141-.19Z" transform="translate(-616.71 -370.484)" fill="#fff"/><path d="M629.75,373.512l.384.277.141-.19Z" transform="translate(-616.715 -370.484)" fill="#fff"/><path d="M629.75,373.512h.473v.237Z" transform="translate(-616.715 -370.484)" fill="#fff"/><path d="M630.475,374.041l-.146-.451-.224.075Z" transform="translate(-616.71 -370.483)" fill="#fff"/><path d="M630.476,374.041l-.384-.277.141-.19Z" transform="translate(-616.71 -370.484)" fill="#fff"/><path d="M629.918,374.041l.388-.277-.142-.19Z" transform="translate(-616.713 -370.484)" fill="#fff"/><path d="M629.918,374.041l.148-.451.228.075Z" transform="translate(-616.713 -370.483)" fill="#fff"/><path d="M632.08,373.188l-.148.451.224.075Z" transform="translate(-616.686 -370.489)" fill="#fff"/><path d="M632.079,373.188l.146.451-.23.075Z" transform="translate(-616.686 -370.489)" fill="#fff"/><path d="M632.529,373.512h-.475v.237Z" transform="translate(-616.685 -370.484)" fill="#fff"/><path d="M632.53,373.512l-.386.277L632,373.6Z" transform="translate(-616.685 -370.484)" fill="#fff"/><path d="M631.629,373.512l.384.277.142-.19Z" transform="translate(-616.69 -370.484)" fill="#fff"/><path d="M631.629,373.512h.475v.237Z" transform="translate(-616.69 -370.484)" fill="#fff"/><path d="M632.356,374.041l-.148-.451-.226.075Z" transform="translate(-616.686 -370.483)" fill="#fff"/><path d="M632.357,374.041l-.384-.277.136-.19Z" transform="translate(-616.686 -370.484)" fill="#fff"/><path d="M631.8,374.041l.384-.277-.138-.19Z" transform="translate(-616.688 -370.484)" fill="#fff"/><path d="M631.8,374.041l.146-.451.228.075Z" transform="translate(-616.688 -370.483)" fill="#fff"/><path d="M624.56,375.066l-.146.455.226.071Z" transform="translate(-616.785 -370.464)" fill="#fff"/><path d="M624.56,375.066l.146.455-.225.071Z" transform="translate(-616.784 -370.464)" fill="#fff"/><path d="M625.01,375.395h-.477v.233Z" transform="translate(-616.783 -370.46)" fill="#fff"/><path d="M625.011,375.395l-.386.277-.138-.194Z" transform="translate(-616.784 -370.46)" fill="#fff"/><path d="M624.109,375.395l.388.277.141-.194Z" transform="translate(-616.789 -370.46)" fill="#fff"/><path d="M624.109,375.395h.477v.233Z" transform="translate(-616.789 -370.46)" fill="#fff"/><path d="M624.839,375.924l-.146-.451-.228.071Z" transform="translate(-616.784 -370.459)" fill="#fff"/><path d="M624.839,375.924l-.384-.277.141-.2Z" transform="translate(-616.784 -370.459)" fill="#fff"/><path d="M624.281,375.924l.386-.277-.142-.2Z" transform="translate(-616.786 -370.459)" fill="#fff"/><path d="M624.281,375.924l.146-.451.225.071Z" transform="translate(-616.786 -370.459)" fill="#fff"/><path d="M626.439,375.066l-.148.455.226.071Z" transform="translate(-616.76 -370.464)" fill="#fff"/><path d="M626.439,375.066l.146.455-.226.071Z" transform="translate(-616.759 -370.464)" fill="#fff"/><path d="M626.889,375.395h-.475v.233Z" transform="translate(-616.758 -370.46)" fill="#fff"/><path d="M626.89,375.395l-.384.277-.141-.194Z" transform="translate(-616.759 -370.46)" fill="#fff"/><path d="M625.99,375.395l.386.277.138-.194Z" transform="translate(-616.764 -370.46)" fill="#fff"/><path d="M625.99,375.395h.477v.233Z" transform="translate(-616.764 -370.46)" fill="#fff"/><path d="M626.716,375.924l-.144-.451-.226.071Z" transform="translate(-616.759 -370.459)" fill="#fff"/><path d="M626.716,375.924l-.382-.277.139-.2Z" transform="translate(-616.759 -370.459)" fill="#fff"/><path d="M626.16,375.924l.386-.277-.141-.2Z" transform="translate(-616.762 -370.459)" fill="#fff"/><path d="M626.16,375.924l.146-.451.228.071Z" transform="translate(-616.762 -370.459)" fill="#fff"/><path d="M628.318,375.066l-.146.455.225.071Z" transform="translate(-616.736 -370.464)" fill="#fff"/><path d="M628.317,375.066l.148.455-.228.071Z" transform="translate(-616.735 -370.464)" fill="#fff"/><path d="M628.772,375.395h-.479v.233Z" transform="translate(-616.734 -370.46)" fill="#fff"/><path d="M628.772,375.395l-.39.277-.137-.194Z" transform="translate(-616.735 -370.46)" fill="#fff"/><path d="M627.871,375.395l.384.277.141-.194Z" transform="translate(-616.739 -370.46)" fill="#fff"/><path d="M627.871,375.395h.477v.233Z" transform="translate(-616.739 -370.46)" fill="#fff"/><path d="M628.6,375.924l-.144-.451-.228.071Z" transform="translate(-616.735 -370.459)" fill="#fff"/><path d="M628.6,375.924l-.382-.277.137-.2Z" transform="translate(-616.735 -370.459)" fill="#fff"/><path d="M628.039,375.924l.388-.277-.14-.2Z" transform="translate(-616.737 -370.459)" fill="#fff"/><path d="M628.039,375.924l.148-.451.226.071Z" transform="translate(-616.737 -370.459)" fill="#fff"/><path d="M630.2,375.066l-.148.455.228.071Z" transform="translate(-616.711 -370.464)" fill="#fff"/><path d="M630.2,375.066l.144.455-.225.071Z" transform="translate(-616.71 -370.464)" fill="#fff"/><path d="M630.649,375.395h-.477v.233Z" transform="translate(-616.709 -370.46)" fill="#fff"/><path d="M630.649,375.395l-.386.277-.141-.194Z" transform="translate(-616.71 -370.46)" fill="#fff"/><path d="M629.75,375.395l.384.277.141-.194Z" transform="translate(-616.715 -370.46)" fill="#fff"/><path d="M629.75,375.395h.473v.233Z" transform="translate(-616.715 -370.46)" fill="#fff"/><path d="M630.475,375.924l-.146-.451-.224.071Z" transform="translate(-616.71 -370.459)" fill="#fff"/><path d="M630.476,375.924l-.384-.277.141-.2Z" transform="translate(-616.71 -370.459)" fill="#fff"/><path d="M629.918,375.924l.388-.277-.142-.2Z" transform="translate(-616.713 -370.459)" fill="#fff"/><path d="M629.918,375.924l.148-.451.228.071Z" transform="translate(-616.713 -370.459)" fill="#fff"/><path d="M632.08,375.066l-.148.455.224.071Z" transform="translate(-616.686 -370.464)" fill="#fff"/><path d="M632.079,375.066l.146.455-.23.071Z" transform="translate(-616.686 -370.464)" fill="#fff"/><path d="M632.529,375.395h-.475v.233Z" transform="translate(-616.685 -370.46)" fill="#fff"/><path d="M632.53,375.395l-.386.277-.141-.194Z" transform="translate(-616.685 -370.46)" fill="#fff"/><path d="M631.629,375.395l.384.277.142-.194Z" transform="translate(-616.69 -370.46)" fill="#fff"/><path d="M631.629,375.395h.475v.233Z" transform="translate(-616.69 -370.46)" fill="#fff"/><path d="M632.356,375.924l-.148-.451-.226.071Z" transform="translate(-616.686 -370.459)" fill="#fff"/><path d="M632.357,375.924l-.384-.277.136-.2Z" transform="translate(-616.686 -370.459)" fill="#fff"/><path d="M631.8,375.924l.384-.277-.138-.2Z" transform="translate(-616.688 -370.459)" fill="#fff"/><path d="M631.8,375.924l.146-.451.228.071Z" transform="translate(-616.688 -370.459)" fill="#fff"/></g></g></svg>