<svg xmlns="http://www.w3.org/2000/svg" width="45.614" height="40.57" viewBox="0 0 45.614 40.57"><path d="M194.744,145.306c-1.708,1.567-3.744,3.929-3.744,6.281a6.463,6.463,0,0,0,.892,3.435c.017-.73.271-2.03,1.973-4.854.911-1.512,1.809-2.746,1.847-2.8a1.337,1.337,0,0,1,2.159,0c.038.052.936,1.286,1.847,2.8a12.374,12.374,0,0,1,1.942,4.462,8.83,8.83,0,0,0,.923-4.051c0-3.951-2.869-7.927-4.849-10.2a10.458,10.458,0,0,1-2.989,4.926Zm0,0" transform="translate(-173.984 -127.873)" fill="#ffb600"/><path d="M235.455,258.78c0-.777-1.026-2.733-2.227-4.588C232.026,256.047,231,258,231,258.78a2.234,2.234,0,1,0,4.455,0Zm0,0" transform="translate(-210.42 -231.546)" fill="#ffb600"/><path d="M41.821,3.793a12.967,12.967,0,0,0-18.316,0l-.7.7-.7-.7A12.952,12.952,0,0,0,3.793,22.11L21.862,40.179a1.336,1.336,0,0,0,1.89,0L41.821,22.11a12.952,12.952,0,0,0,0-18.316ZM22.807,32.312a8.252,8.252,0,0,1-6.258-2.547,8.841,8.841,0,0,1-2.206-6.051c0-3.324,2.507-6.321,4.609-8.251a7.957,7.957,0,0,0,2.518-5.87A1.336,1.336,0,0,1,23.7,8.6c.309.279,7.569,6.908,7.569,14.1,0,5.656-3.48,9.607-8.464,9.607Zm0,0" fill="#ffb600"/></svg>