<svg xmlns="http://www.w3.org/2000/svg" width="40.791" height="40.758" viewBox="0 0 40.791 40.758"><path d="M25.754,21.155l.849,2.122H22.372a18.887,18.887,0,0,0,2.389-9.072l2.919-.876v.944c0,.156,0,.311-.008.467a3.273,3.273,0,0,0-2.177,3.074V19.8a3.637,3.637,0,0,0,.26,1.353ZM15.3,26.19a2.9,2.9,0,0,0,.8,2c-.27.2-.535.4-.814.583l-1.444.924L12.4,28.769A17.417,17.417,0,0,1,5.413,20.01l17.875-5.363a17.428,17.428,0,0,1-2.615,8.629H18.21A2.914,2.914,0,0,0,15.3,26.19ZM.4,18.715c-.006-.036-.012-.073-.018-.108l2.895-.866c.086.437.19.874.307,1.3l-2.936.881C.547,19.5.467,19.107.4,18.715ZM.06,15.789l2.881-.865c.02.457.054.91.106,1.361l-2.874.862c-.007-.065-.013-.131-.02-.2-.037-.376-.071-.757-.092-1.163Zm23.249-8.5L4.371,12.974V7.765l9.494-3.391,9.444,2.7Zm0,1.521v1.393L4.47,15.858q-.069-.679-.086-1.366Zm4.37,1.6v1.393l-2.914.874V11.29Zm0-1.521-2.914.874V8.376L27.68,7.5ZM4.674,17.318l11.853-3.555,6.783-2.035V13.12l-18.335,5.5c-.115-.43-.218-.863-.3-1.3ZM0,4.152,13.84,0,27.68,4.152v1.83l-2.914.874V6.523a.728.728,0,0,0-.528-.7L14.04,2.91a.718.718,0,0,0-.445.014L3.4,6.566a.728.728,0,0,0-.484.686v6.159L0,14.285ZM13.84,37.027A25.466,25.466,0,0,1,.981,21.339l3.035-.91a18.859,18.859,0,0,0,7.595,9.566l1.835,1.179a.729.729,0,0,0,.788,0l1.835-1.179.019-.012a2.879,2.879,0,0,0,1.35,3.075,2.812,2.812,0,0,0-.664,2.177,25.668,25.668,0,0,1-2.934,1.793Zm18.72,3.731H20.4a1.451,1.451,0,0,1-.121-2.9.744.744,0,0,0,.667-.772.728.728,0,0,0-.728-.7h-.546a1.457,1.457,0,0,1,0-2.914.728.728,0,1,0,0-1.457h-.728a1.457,1.457,0,1,1,0-2.914.728.728,0,0,0,0-1.457H18.21a1.457,1.457,0,1,1,0-2.914H27.68a.729.729,0,0,0,.677-1l-1.249-3.121a2.167,2.167,0,0,1-.156-.812V17.814a1.821,1.821,0,1,1,3.642,0v2.549a.737.737,0,0,0,.052.271L32.1,24.276a.733.733,0,0,0,.447.42l3.872,1.291v12.2Zm8.231-2.914H37.877V26.19h2.914Zm0,0" transform="translate(0)" fill="#ffb600"/><path d="M395.019,86.367l-1,1.063a10.845,10.845,0,0,1,.936.994l1.12-.932A12.435,12.435,0,0,0,395.019,86.367Zm0,0" transform="translate(-358.147 -78.504)" fill="#ffb600"/><path d="M433.2,177.169q0-.428-.029-.849l-1.453.1q.025.372.026.75c0,.206-.006.411-.017.615l1.457.084Q433.2,177.521,433.2,177.169Zm0,0" transform="translate(-392.411 -160.267)" fill="#ffb600"/><path d="M371.825,67.272a12.419,12.419,0,0,0-1.306-.83l-.7,1.275a10.862,10.862,0,0,1,1.152.728Zm0,0" transform="translate(-336.144 -60.392)" fill="#ffb600"/><path d="M428.211,207.557l-1.434-.261a10.8,10.8,0,0,1-.328,1.323l1.388.437A12.291,12.291,0,0,0,428.211,207.557Zm0,0" transform="translate(-387.621 -188.423)" fill="#ffb600"/><path d="M343.828,54.4a12.218,12.218,0,0,0-1.472-.479l-.364,1.411a10.988,10.988,0,0,1,1.3.423Zm0,0" transform="translate(-310.853 -49.012)" fill="#ffb600"/><path d="M417,236.541l1.275.706c.146-.267.291-.541.416-.822l-1.323-.609Q417.2,236.186,417,236.541Zm0,0" transform="translate(-379.032 -214.346)" fill="#ffb600"/><path d="M413.16,113.219a11.13,11.13,0,0,1,.662,1.192l1.315-.625a12.3,12.3,0,0,0-.75-1.352Zm0,0" transform="translate(-375.542 -102.197)" fill="#ffb600"/><path d="M426,143.487a10.963,10.963,0,0,1,.344,1.319l1.43-.277a12.215,12.215,0,0,0-.39-1.5Zm0,0" transform="translate(-387.212 -130.008)" fill="#ffb600"/><path d="M341.284,121.68A4.628,4.628,0,0,1,344.208,126h1.457a6.077,6.077,0,0,0-3.839-5.671l-.26-.1-.542,1.352Zm0,0" transform="translate(-309.973 -109.277)" fill="#ffb600"/></svg>