<svg xmlns="http://www.w3.org/2000/svg" width="34.267" height="21.184" viewBox="0 0 34.267 21.184"><g transform="translate(-108.185 -258.41)"><rect width="34.267" height="1.635" transform="translate(108.185 264.928)" fill="#db2e2e"/><rect width="34.267" height="1.633" transform="translate(108.185 261.668)" fill="#db2e2e"/><rect width="34.267" height="1.633" transform="translate(108.185 258.41)" fill="#db2e2e"/><rect width="34.267" height="1.635" transform="translate(108.185 268.19)" fill="#db2e2e"/><rect width="34.267" height="1.635" transform="translate(108.185 271.445)" fill="#db2e2e"/><rect width="34.267" height="1.633" transform="translate(108.185 274.707)" fill="#db2e2e"/><rect width="34.267" height="1.633" transform="translate(108.185 277.961)" fill="#db2e2e"/><rect width="34.267" height="1.633" transform="translate(108.185 263.299)" fill="#fff"/><rect width="34.267" height="1.633" transform="translate(108.185 260.041)" fill="#fff"/><rect width="34.267" height="1.633" transform="translate(108.185 266.56)" fill="#fff"/><rect width="34.267" height="1.633" transform="translate(108.185 269.815)" fill="#fff"/><rect width="34.267" height="1.633" transform="translate(108.185 273.076)" fill="#fff"/><rect width="34.267" height="1.633" transform="translate(108.185 276.336)" fill="#fff"/><rect width="12.813" height="9.865" transform="translate(108.185 258.463)" fill="#2e4593"/><path d="M118.894,260.422l.136.383-.324-.24v0l-.322.24.135-.383,0,0h0l-.334-.225h.4l.11-.385.124.385h.407l-.336.225h0Z" fill="#fff"/><path d="M118.894,262.416l.136.381-.324-.238v0l-.322.238.135-.381,0,0h0l-.334-.227h.4l.11-.385.124.385v0h.406l-.336.227h0Z" fill="#fff"/><path d="M118.894,264.41l.136.381-.324-.24v0l-.322.24.135-.381,0,0h0l-.334-.225h.4l.11-.385.124.385h.407l-.336.225h0Z" fill="#fff"/><path d="M118.894,266.4l.136.381-.324-.238v0l-.322.238.135-.381,0,0h0l-.334-.227h.4l.11-.385.124.385v0h.406l-.336.227h0Z" fill="#fff"/><path d="M116.774,260.422l.136.383-.324-.24v0l-.324.24.137-.383,0,0h0l-.334-.225h.4l.11-.385.124.385h.405l-.334.225h0Z" fill="#fff"/><path d="M116.774,262.416l.136.381-.324-.238v0l-.324.238.137-.381,0,0h0l-.334-.227h.4l.11-.385.124.385v0l0,0h.4l-.334.227h0Z" fill="#fff"/><path d="M116.774,264.41l.136.381-.324-.24v0l-.324.24.137-.381,0,0h0l-.334-.225h.4l.11-.385.124.385h.405l-.334.225h0Z" fill="#fff"/><path d="M116.774,266.4l.136.381-.324-.238v0l-.324.238.137-.381,0,0h0l-.334-.227h.4l.11-.385.124.385v0l0,0h.4l-.334.227h0Z" fill="#fff"/><path d="M114.654,260.422l.137.383-.325-.24v0l-.324.24.135-.383,0,0h0l-.334-.225h.4l.109-.385.125.385h.406l-.335.225h0Z" fill="#fff"/><path d="M114.654,262.416l.137.381-.325-.238v0l-.324.238.135-.381,0,0h0l-.334-.227h.4l.109-.385.125.385v0l0,0h.405l-.335.227h0Z" fill="#fff"/><path d="M114.654,264.41l.137.381-.325-.24v0l-.324.24.135-.381,0,0h0l-.334-.225h.4l.109-.385.125.385h.406l-.335.225h0Z" fill="#fff"/><path d="M114.654,266.4l.137.381-.325-.238v0l-.324.238.135-.381,0,0h0l-.334-.227h.4l.109-.385.125.385v0l0,0h.405l-.335.227h0Z" fill="#fff"/><path d="M112.57,260.422l.135.383-.324-.24v0l-.325.24.136-.383,0,0h0l-.334-.225h.4l.109-.385.125.385h.405l-.334.225h0Z" fill="#fff"/><path d="M112.57,262.416l.135.381-.324-.238v0l-.325.238.136-.381,0,0h0l-.334-.227h.4l.109-.385.125.385,0,0,0,0h.405l-.334.227h0Z" fill="#fff"/><path d="M112.57,264.41l.135.381-.324-.24v0l-.325.24.136-.381,0,0h0l-.334-.225h.4l.109-.385.125.385h.405l-.334.225h0Z" fill="#fff"/><path d="M112.57,266.4l.135.381-.324-.238v0l-.325.238.136-.381,0,0h0l-.334-.227h.4l.109-.385.125.385,0,0,0,0h.405l-.334.227h0Z" fill="#fff"/><path d="M110.483,260.422l.136.383-.324-.24v0l-.323.24.135-.383,0,0h0l-.334-.225h.4l.109-.385.125.385h.406l-.336.225h0Z" fill="#fff"/><path d="M110.483,262.416l.136.381-.324-.238v0l-.323.238.135-.381,0,0h0l-.334-.227h.4l.109-.385.125.385v0h.406l-.336.227h0Z" fill="#fff"/><path d="M110.483,264.41l.136.381-.324-.24v0l-.323.24.135-.381,0,0h0l-.334-.225h.4l.109-.385.125.385h.406l-.336.225h0Z" fill="#fff"/><path d="M110.483,266.4l.136.381-.324-.238v0l-.323.238.135-.381,0,0h0l-.334-.227h.4l.109-.385.125.385v0h.406l-.336.227h0Z" fill="#fff"/><path d="M119.922,261.418l.135.381-.324-.238v0l-.324.238.135-.381,0,0h0l-.334-.225h.4l.109-.385.124.385v0h.406l-.335.225h0Z" fill="#fff"/><path d="M119.922,263.412l.135.381-.324-.24h0l-.324.24.135-.381,0,0h0l-.334-.225h.4l.109-.385.124.385h.407l-.335.225h0Z" fill="#fff"/><path d="M119.922,265.406l.135.383-.324-.24v0l-.324.24.135-.383,0,0h0l-.334-.227.4,0,.109-.385.124.383v0h0l.406,0-.335.227h0Z" fill="#fff"/><path d="M119.922,267.4l.135.383-.324-.24v0l-.324.24.135-.383,0,0h0l-.334-.225h.4l.109-.385.124.385v0h.406l-.335.225h0Z" fill="#fff"/><path d="M119.922,259.434l.135.381-.324-.238v0l-.324.238.135-.381,0,0h0l-.334-.225h.4l.109-.385.124.385v0h.406l-.335.225h0Z" fill="#fff"/><path d="M117.849,261.418l.136.381-.324-.238v0l-.324.238.135-.381,0,0h0l-.334-.225h.4l.109-.385.124.385v0h.405l-.334.225h0Z" fill="#fff"/><path d="M117.849,263.412l.136.381-.324-.24h0l-.324.24.135-.381,0,0h0l-.334-.225h.4l.109-.385.124.385h.406l-.334.225h0Z" fill="#fff"/><path d="M117.849,265.406l.136.383-.324-.24v0l-.324.24.135-.383,0,0h0l-.334-.227.4,0,.109-.385.124.383v0h0l.405,0-.334.227h0Z" fill="#fff"/><path d="M117.849,267.4l.136.383-.324-.24v0l-.324.24.135-.383,0,0h0l-.334-.225h.4l.109-.385.124.385v0h.405l-.334.225h0Z" fill="#fff"/><path d="M117.849,259.434l.136.381-.324-.238v0l-.324.238.135-.381,0,0h0l-.334-.225h.4l.109-.385.124.385v0h.405l-.334.225h0Z" fill="#fff"/><path d="M115.693,261.418l.137.381-.325-.238v0l-.323.238.136-.381,0,0h0l-.333-.225h.4l.111-.385.123.385v0l0,0h.4l-.334.225h0Z" fill="#fff"/><path d="M115.693,263.412l.137.381-.325-.24h0l-.323.24.136-.381,0,0h0l-.333-.225h.4l.111-.385.123.385h.406l-.334.225h0Z" fill="#fff"/><path d="M115.693,265.406l.137.383-.325-.24v0l-.323.24.136-.383,0,0h0l-.333-.227.4,0,.111-.385.123.383v0h0l.4,0-.334.227h0Z" fill="#fff"/><path d="M115.693,267.4l.137.383-.325-.24v0l-.323.24.136-.383,0,0h0l-.333-.225h.4l.111-.385.123.385v0l0,0h.4l-.334.225h0Z" fill="#fff"/><path d="M115.693,259.434l.137.381-.325-.238v0l-.323.238.136-.381,0,0h0l-.333-.225h.4l.111-.385.123.385v0l0,0h.4l-.334.225h0Z" fill="#fff"/><path d="M113.586,261.418l.135.381-.322-.238,0,0v0l-.324.238.136-.381,0,0h0l-.332-.225h.4l.109-.385.125.385v0h.406l-.335.225h0Z" fill="#fff"/><path d="M113.586,263.412l.135.381-.322-.24h0l-.324.24.136-.381,0,0h0l-.332-.225h.4l.109-.385.125.385h.406l-.335.225h0Z" fill="#fff"/><path d="M113.586,265.406l.135.383-.322-.24,0,0v0l-.324.24.136-.383,0,0h0l-.332-.227.4,0,.109-.385.125.383v0h0l.406,0-.335.227h0Z" fill="#fff"/><path d="M113.586,267.4l.135.383-.322-.24,0,0v0l-.324.24.136-.383,0,0h0l-.332-.225h.4l.109-.385.125.385v0h.406l-.335.225h0Z" fill="#fff"/><path d="M113.586,259.434l.135.381-.322-.238,0,0v0l-.324.238.136-.381,0,0h0l-.332-.225h.4l.109-.385.125.385v0h.406l-.335.225h0Z" fill="#fff"/><path d="M111.522,261.418l.136.381-.324-.238v0l-.323.238.136-.381,0,0h0l-.334-.225h.4l.111-.385.124.385v0h.405l-.335.225h0Z" fill="#fff"/><path d="M111.522,263.412l.136.381-.324-.24h0l-.323.24.136-.381,0,0h0l-.334-.225h.4l.111-.385.124.385h.406l-.335.225h0Z" fill="#fff"/><path d="M111.522,265.406l.136.383-.324-.24v0l-.323.24.136-.383,0,0h0l-.334-.227.4,0,.111-.385.124.383v0h0l.405,0-.335.227h0Z" fill="#fff"/><path d="M111.522,267.4l.136.383-.324-.24v0l-.323.24.136-.383,0,0h0l-.334-.225h.4l.111-.385.124.385v0h.405l-.335.225h0Z" fill="#fff"/><path d="M111.522,259.434l.136.381-.324-.238v0l-.323.238.136-.381,0,0h0l-.334-.225h.4l.111-.385.124.385v0h.405l-.335.225h0Z" fill="#fff"/><path d="M109.424,261.418l.136.381-.323-.238,0,0v0l-.324.238.137-.381,0,0h0l-.336-.225h.4l.109-.385.125.385v0h.406l-.334.225h0Z" fill="#fff"/><path d="M109.424,263.412l.136.381-.323-.24h0l-.324.24.137-.381,0,0h0l-.336-.225h.4l.109-.385.125.385h.406l-.334.225h0Z" fill="#fff"/><path d="M109.424,265.406l.136.383-.323-.24,0,0v0l-.324.24.137-.383,0,0h0l-.336-.227.4,0,.109-.385.125.383v0h0l.406,0-.334.227h0Z" fill="#fff"/><path d="M109.424,267.4l.136.383-.323-.24,0,0v0l-.324.24.137-.383,0,0h0l-.336-.225h.4l.109-.385.125.385v0h.406l-.334.225h0Z" fill="#fff"/><path d="M109.424,259.434l.136.381-.323-.238,0,0v0l-.324.238.137-.381,0,0h0l-.336-.225h.4l.109-.385.125.385v0h.406l-.334.225h0Z" fill="#fff"/></g></svg>