<svg xmlns="http://www.w3.org/2000/svg" xmlns:xlink="http://www.w3.org/1999/xlink" width="32" height="32" viewBox="0 0 32 32"><defs><clipPath id="a"><rect width="32" height="32" transform="translate(1086 942)" fill="#ffc409"/></clipPath></defs><g transform="translate(-1086 -942)" clip-path="url(#a)"><path d="M28,5.333V4a4,4,0,0,0-4-4H4A4,4,0,0,0,0,4V25.333a4,4,0,0,0,4,4H28a4,4,0,0,0,4-4v-16A4,4,0,0,0,28,5.333ZM4,2.667H24A1.335,1.335,0,0,1,25.333,4V5.333H4A1.333,1.333,0,0,1,4,2.667Zm24,24H4a1.335,1.335,0,0,1-1.333-1.333V7.771A3.986,3.986,0,0,0,4,8H28a1.335,1.335,0,0,1,1.333,1.333v3.333H22A4.667,4.667,0,0,0,22,22h7.333v3.333A1.335,1.335,0,0,1,28,26.667Zm1.333-7.333h-3.12a4.622,4.622,0,0,0,0-4h3.123Zm-9.333-2a2,2,0,1,1,2,2,2,2,0,0,1-2-2Zm0,0" transform="translate(1086 943.333)" fill="#ffc409"/></g></svg>