<svg xmlns="http://www.w3.org/2000/svg" width="32.239" height="32" viewBox="0 0 32.239 32"><g transform="translate(0 -1.895)"><g transform="translate(0 9.835)"><path d="M26.561,128H1.191A1.191,1.191,0,0,0,0,129.194v14.254a1.191,1.191,0,0,0,1.191,1.191H21.042v-2.383H2.382V130.385H25.37V138.6h2.382v-9.409A1.191,1.191,0,0,0,26.561,128Z" transform="translate(0 -128.003)" fill="#ffc409"/></g><g transform="translate(9.29 13.369)"><path d="M152.311,184.128a4.764,4.764,0,1,0,4.764,4.764A4.77,4.77,0,0,0,152.311,184.128Zm0,7.146a2.382,2.382,0,1,1,2.382-2.382A2.385,2.385,0,0,1,152.311,191.274Z" transform="translate(-147.547 -184.128)" fill="#ffc409"/></g><g transform="translate(2.382 5.865)"><path d="M59.63,64.949H39.024a1.191,1.191,0,0,0,0,2.382H59.63a1.191,1.191,0,0,0,0-2.382Z" transform="translate(-37.833 -64.949)" fill="#ffc409"/></g><g transform="translate(4.764 1.895)"><g transform="translate(0 0)"><path d="M92.7,1.895H76.856a1.191,1.191,0,1,0,0,2.382H92.7a1.191,1.191,0,1,0,0-2.382Z" transform="translate(-75.665 -1.895)" fill="#ffc409"/></g></g><g transform="translate(19.851 19.285)"><path d="M321.464,278.072c-3.083,0-6.194.933-6.194,3.017s3.111,3.017,6.194,3.017,6.194-.933,6.194-3.017S324.547,278.072,321.464,278.072Zm0,3.653a8.452,8.452,0,0,1-3.542-.635,10.189,10.189,0,0,1,7.085,0A8.446,8.446,0,0,1,321.464,281.725Z" transform="translate(-315.27 -278.072)" fill="#ffc409"/></g><g transform="translate(19.851 26.273)"><path d="M325.275,389.3a.429.429,0,0,1,.063-.237c-.228.295-1.642.873-3.875.873s-3.647-.568-3.87-.858a.407.407,0,0,1,.059.222H315.27c0,2.084,3.111,3.017,6.194,3.017s6.194-.933,6.194-3.017h-2.382Z" transform="translate(-315.27 -389.06)" fill="#ffc409"/></g><g transform="translate(19.851 22.302)"><path d="M325.276,325.993v8.413a9.448,9.448,0,0,1-7.623-.012v-8.4h-2.382v8.576c0,2.084,3.111,3.017,6.194,3.017s6.194-.933,6.194-3.017v-8.576Z" transform="translate(-315.271 -325.993)" fill="#ffc409"/></g></g></svg>