<svg xmlns="http://www.w3.org/2000/svg" width="49.648" height="32" viewBox="0 0 49.648 32"><path d="M33.648,0a15.838,15.838,0,0,0-8.831,2.656A16,16,0,1,0,16,32a15.907,15.907,0,0,0,8.817-2.656A15.838,15.838,0,0,0,33.648,32a16,16,0,0,0,0-32ZM16,29.091A13.091,13.091,0,1,1,26.88,8.727H21.042v2.909h7.3a13,13,0,0,1,.668,2.909H19.1v2.909h9.906a12.962,12.962,0,0,1-.667,2.909h-7.3v2.909H26.88A13.09,13.09,0,0,1,16,29.091Zm17.648,0A12.961,12.961,0,0,1,27.213,27.4a15.971,15.971,0,0,0,0-22.8,12.961,12.961,0,0,1,6.436-1.689,13.091,13.091,0,1,1,0,26.182Zm0,0" fill="#ffc409"/></svg>