<svg xmlns="http://www.w3.org/2000/svg" width="19.057" height="16.94" viewBox="0 0 19.057 16.94"><path d="M9.529,0A4.169,4.169,0,0,0,5.36,4.169c0,1.861,2.725,5.254,3.768,6.485a.522.522,0,0,0,.8,0C10.973,9.423,13.7,6.03,13.7,4.169A4.169,4.169,0,0,0,9.529,0Zm0,5.558a1.39,1.39,0,1,1,1.39-1.39A1.389,1.389,0,0,1,9.529,5.558ZM.666,7.145A1.059,1.059,0,0,0,0,8.128V16.41a.529.529,0,0,0,.726.492l4.568-2.079V7.111a10.019,10.019,0,0,1-.7-1.536ZM9.529,11.9a1.581,1.581,0,0,1-1.208-.561C7.67,10.571,6.978,9.7,6.352,8.8v6.022L12.7,16.939V8.8c-.626.9-1.317,1.771-1.968,2.538A1.582,1.582,0,0,1,9.529,11.9Zm8.8-6.568L13.763,7.411V16.94l4.628-1.851a1.059,1.059,0,0,0,.666-.983V5.824a.529.529,0,0,0-.726-.492Z" fill="#ffb600"/></svg>