<svg xmlns="http://www.w3.org/2000/svg" xmlns:xlink="http://www.w3.org/1999/xlink" width="6232.562" height="2067.73" viewBox="0 0 6232.562 2067.73"><defs><clipPath id="a"><path d="M1332.99,884.566l-276.756-159.78S552.041,433.654,522.4,416.542s-59.172-6.744-59.172,29.016v1255.81c0,26.808,21.107,38.364,46.859,23.508,25.74-14.88,546.145-315.348,546.145-315.348l276.744-159.769S1567.792,1114.2,1599,1096.183c31.213-18.036,28.213-42.756,1.873-56.939s-267.888-154.681-267.888-154.681Z"/></clipPath><linearGradient id="b" x1="1.441" y1="1.519" x2="1.441" y2="1.436" gradientUnits="objectBoundingBox"><stop offset="0" stop-color="#257cb0"/><stop offset="0.286" stop-color="#4a93b5"/><stop offset="0.767" stop-color="#78bcbb"/><stop offset="1" stop-color="#89cfbd"/></linearGradient><linearGradient id="d" x1="1.103" y1="2.982" x2="1.187" y2="2.982" gradientUnits="objectBoundingBox"><stop offset="0" stop-color="#52c1ad"/><stop offset="1" stop-color="#dee89a"/></linearGradient><linearGradient id="f" x1="1.145" y1="1.94" x2="1.145" y2="1.857" gradientUnits="objectBoundingBox"><stop offset="0" stop-color="#ec413d"/><stop offset="0.167" stop-color="#da4452"/><stop offset="0.575" stop-color="#b0487a"/><stop offset="0.862" stop-color="#954a92"/><stop offset="1" stop-color="#8a4a9d"/></linearGradient><linearGradient id="h" x1="0.704" y1="4.18" x2="0.704" y2="4.097" gradientUnits="objectBoundingBox"><stop offset="0" stop-color="#f58879"/><stop offset="0.119" stop-color="#f69079"/><stop offset="0.713" stop-color="#fcb877"/><stop offset="1" stop-color="#fec874"/></linearGradient></defs><g transform="translate(27.14 29.186)"><path d="M6140.62,1737.2c0,149.832-121.453,271.344-271.261,271.344H274.18c-149.82.012-271.32-121.5-271.32-271.344V272.134C2.86,122.314,124.36.814,274.18.814H5869.35c149.808,0,271.261,121.5,271.261,271.32V1737.2h.012Z" fill="none" stroke="#fff" stroke-width="60"/><g clip-path="url(#a)"><path d="M463.24,387.346v1359.64l685.608-679.812Z" fill="url(#b)"/></g><g clip-path="url(#a)"><path d="M1332.99,884.566l-276.756-159.78L463.24,382.4v4.944l685.608,679.824Z" fill="url(#d)"/></g><g clip-path="url(#a)"><path d="M463.24,1746.98v4.944l592.992-342.4,276.744-159.78-184.128-182.58Z" fill="url(#f)"/></g><g clip-path="url(#a)"><path d="M1332.99,884.566l-184.14,182.6,184.128,182.58,316.283-182.592Z" fill="url(#h)"/></g><path d="M4779.56,1332.95q-38.628,0-70.524-14.244-31.914-14.256-53.592-43.824h-4.319a531.653,531.653,0,0,1,4.319,65.652v162.708h-59.856V930.322h48.7l8.28,54.12h2.88q23.111-32.49,53.771-46.9,30.656-14.436,70.332-14.436,78.66,0,121.4,53.76t42.756,150.792q0,97.416-43.452,151.368-43.469,53.927-120.695,53.916ZM4770.9,973.982q-60.606,0-87.66,33.553t-27.792,106.8v13.332q0,83.357,27.792,119.256t89.1,35.88q51.264,0,80.305-41.472,29.016-41.472,29.027-114.384,0-73.926-29.027-113.461t-81.745-39.5ZM5082.38,1325.72H5022.5V764.36h59.881Zm344.31,0-11.916-56.279h-2.88q-29.594,37.187-58.992,50.327-29.394,13.194-73.4,13.177-58.8,0-92.184-30.3t-33.372-86.22q0-119.754,191.567-125.556l67.129-2.172v-24.528q0-46.548-20.041-68.724-20-22.214-64.031-22.2-49.447,0-111.841,30.3l-18.407-45.816a281.436,281.436,0,0,1,64.056-24.888,277.282,277.282,0,0,1,69.8-9.023q70.706,0,104.809,31.38,34.074,31.392,34.08,100.668v269.844h-44.376v.011ZM5291.4,1283.528q55.89,0,87.84-30.66,31.9-30.656,31.933-85.884v-35.712l-59.916,2.508q-71.424,2.574-103,22.224-31.554,19.656-31.561,61.152,0,32.454,19.669,49.4,19.673,16.976,55.031,16.969ZM5505.83,930.322h64.2l86.593,225.491q28.494,77.22,35.375,111.492h2.881q4.7-18.432,19.655-62.987,14.976-44.568,97.944-274h64.248l-169.944,450.252q-25.236,66.744-59,94.739-33.714,27.936-82.764,27.925a241.759,241.759,0,0,1-54.144-6.12v-47.977a209.222,209.222,0,0,0,44.388,4.332q61.7,0,88.032-69.275l22-56.269L5505.83,930.322ZM3670.17,967.066c19.009,15.731,58.705,48.779,58.705,111.672,0,61.164-34.74,90.168-69.48,117.42-10.752,10.739-23.16,22.355-23.16,40.571,0,18.156,12.4,28.093,21.528,35.545l29.784,23.111c36.384,30.612,69.432,58.752,69.432,115.836,0,77.736-75.264,156.276-217.488,156.276-119.939,0-177.8-57.048-177.8-118.284,0-29.76,14.819-71.916,63.684-100.9,51.24-31.428,120.756-35.52,157.955-38.063-11.615-14.868-24.815-30.588-24.815-56.184,0-14.04,4.152-22.32,8.269-32.292-9.133.84-18.217,1.668-26.5,1.668-87.637,0-137.256-65.34-137.256-129.816,0-38.052,17.388-80.256,52.908-110.82,47.159-38.867,103.391-45.5,148.092-45.5h170.328l-52.933,29.772h-51.253v-.012Zm-58.74,367.224c-6.611-.864-10.764-.864-19-.864-7.439,0-52.163,1.692-86.855,13.3-18.191,6.564-71.137,26.412-71.137,85.164,0,58.692,57.1,100.933,145.6,100.933,79.344,0,121.571-38.124,121.571-89.353,0-42.264-27.3-64.5-90.18-109.176Zm24-157.164c19-19.044,20.629-45.48,20.629-60.384,0-59.532-35.545-152.16-104.172-152.16-21.529,0-44.664,10.74-57.9,27.3-14.041,17.364-18.217,39.672-18.217,61.2,0,55.4,32.256,147.216,103.416,147.216,20.677,0,42.961-9.924,56.244-23.172ZM3149.5,1321.05c-131.268,0-201.455-102.4-201.455-194.892,0-108.181,88.332-200.616,213.888-200.616,121.319,0,197.292,94.92,197.292,194.855.011,97.393-75.1,200.653-209.725,200.653Zm103.2-66.876c19.848-26.448,24.8-59.46,24.8-91.691,0-72.685-34.68-211.38-137.076-211.38-27.239,0-54.479,10.752-74.291,28.128-32.209,28.859-38.016,65.208-38.016,100.752,0,81.684,40.463,216.239,140.4,216.239,32.2,0,65.231-15.66,84.181-42.048ZM2701.96,1321.05c-131.293,0-201.492-102.4-201.492-194.892,0-108.181,88.367-200.616,213.888-200.616,121.356,0,197.315,94.92,197.315,194.855C2911.684,1217.79,2836.564,1321.05,2701.96,1321.05Zm103.224-66.876c19.812-26.448,24.78-59.46,24.78-91.691,0-72.685-34.705-211.38-137.1-211.38-27.228,0-54.491,10.752-74.292,28.128-32.208,28.859-37.98,65.208-37.98,100.752,0,81.684,40.44,216.239,140.389,216.239C2753.188,1296.222,2786.2,1280.562,2805.184,1254.174ZM2437.4,1308.11l-118.729,27.4c-48.168,7.488-91.319,14.076-136.955,14.076-229.152,0-316.284-168.528-316.284-300.528,0-161.027,123.672-310.416,335.388-310.416A478.347,478.347,0,0,1,2327.8,756.062c62.256,17.437,91.309,39,109.584,51.469L2368.46,873.11l-29.04,6.612,20.748-33.216c-28.212-27.372-79.728-78-177.648-78-131.172,0-229.979,99.66-229.979,244.92,0,156.024,112.92,302.964,293.855,302.964,53.184,0,80.521-10.775,105.444-20.76V1162.01l-125.328,6.636,66.384-35.735h176l-21.564,20.748c-5.855,5-6.659,6.684-8.315,13.26-.864,7.488-1.644,31.584-1.644,39.876v101.316h.023Z" fill="#fff"/><path d="M3932.55,1284.2c-27.408-2.5-33.145-7.452-33.145-39.864V774.49c.168-1.788.276-3.624.443-5.353,3.349-29.04,11.641-34.02,37.4-48.983H3818.5l-62.279,29.892h63.468v.372l-.048-.3v512.508c0,16.572-3.276,19.092-22.393,43.968H3944.2l30.719-18.216c-14.1-1.716-28.236-2.52-42.372-4.176Zm337.8,7.63c-9.035,4.956-18.107,10.752-27.144,14.844-27.252,12.36-55.271,15.672-80.052,15.672-26.316,0-67.572-1.7-109.656-32.172-58.487-41.256-84.047-112.151-84.047-173.964,0-127.764,103.871-190.416,188.783-190.416,29.688,0,60.229,7.4,84.96,23.1,41.185,27.155,51.9,62.6,57.636,81.575l-193.691,78.349-63.492,4.943c20.58,104.7,91.477,165.66,169.824,165.66,42.036,0,72.552-14.808,100.572-28.8l-43.693,41.208Zm-77.471-245.712c15.636-5.748,23.879-10.716,23.879-22.248,0-32.952-37.08-70.9-81.636-70.9-33.013,0-94.8,25.572-94.8,114.589,0,14.016,1.656,28.848,2.508,43.739l150.049-65.184Zm157.041-114.68v54.4h-6.611v-54.4h-18V925.8h42.6v5.641H4349.92Zm74.16,54.4v-54.9h-.3l-16.752,54.9h-5.172l-16.9-54.9h-.217v54.9h-6V925.8h10.284l15.288,48.528h.216l15.06-48.528h10.429v60.036h-5.94Z" fill="#f9f9f9"/><path d="M2030.31,576.994h-41.256q0-8.514-11.736-48.216h-59.557q-12.112,39.06-12.119,48.216h-38.8q0-5.023,30.1-82.5t30.1-85.332h48.732q0,7.344,27.264,84.108T2030.31,576.994Zm-59.557-72.84q-22.048-66.512-22.043-71.929h-2.064q0,5.023-22.812,71.929h46.919Zm225.777,72.84h-31.836q0-5.292-35.448-55.812-37.116-53.244-42.275-72.827h-2.064a454.048,454.048,0,0,1,3.229,51.048q0,31.842,1.8,77.6H2058.22q1.924-39.96,1.932-87.78,0-47.051-1.932-80.052H2096.5q0,6.84,31.836,54.528,33.9,50.652,38.929,68.712h1.932a486.669,486.669,0,0,1-3.1-51.564q0-34.918-1.8-71.676h32.232q-1.819,31.968-1.8,80.052Q2194.712,537.664,2196.53,576.994Zm186.83-89.723q0,36.611-23.46,63.936-23.472,27.342-65.748,27.324-19.08,0-52.6-1.549,1.672-38.933,1.68-87.779,0-46.908-1.68-80.053h22.561q5.543,0,16.5-.384c7.295-.252,12.071-.384,14.3-.384q46.531,0,67.488,23.208t20.952,55.681Zm-35.185,5.542q0-24.75-14.436-41.712-14.436-16.938-44.088-16.943a134.373,134.373,0,0,0-15.216,1.164q1.278,25.793,1.284,53.88,0,30.816,1.283,61.1a85.3,85.3,0,0,0,16.752,1.68q27.72,0,41.053-17.22t13.368-41.953Zm207.465,84.181h-38.16q-14.958-45.63-22.943-56.328t-25.776-10.7q-7.488,0-14.3.132,0,33.14,1.164,66.9h-35.832q1.672-38.934,1.68-87.78,0-46.906-1.68-80.052h22.295q3.87,0,16.177-.384t22.752-.385q59.166,0,59.172,40.477,0,32.094-33.768,44.736v1.932q13.014,3.6,22.812,20.292Q2539,532.516,2555.64,576.994ZM2507.3,458.4q0-25.65-33-25.655a113.245,113.245,0,0,0-21.4,1.8q1.422,19.98,1.416,52.08c4.729.18,8.725.252,11.988.252Q2507.3,486.892,2507.3,458.4Zm233.116,31.584q0,39.565-24.239,65.616-24.246,26.03-59.94,26.04-34.036,0-56.976-23.916t-22.944-60.768q0-39.564,24.24-65.616,24.228-26.028,59.939-26.04,34.038,0,56.977,23.844t22.943,60.84Zm-35.567,3.733q0-26.946-13.788-43.7-13.806-16.758-34.032-16.752-18.828,0-31.968,16.884T2611.9,492.814q0,26.8,13.859,43.633t33.973,16.824q18.81,0,31.968-16.957,13.14-16.938,13.152-42.6Zm108.457,83.28h-36.48q1.674-39.96,1.68-87.78,0-47.052-1.68-80.052h36.48q-1.674,32.49-1.68,80.052Q2811.63,537.8,2813.31,576.994Zm186.84-89.723q0,36.611-23.46,63.936-23.47,27.342-65.748,27.324-19.08,0-52.6-1.549,1.675-38.933,1.681-87.779,0-46.908-1.681-80.053h22.561q5.544,0,16.5-.384t14.3-.384q46.53,0,67.487,23.208t20.952,55.681Zm-35.184,5.542q0-24.75-14.437-41.712-14.436-16.938-44.088-16.943a134.358,134.358,0,0,0-15.216,1.164q1.278,25.793,1.283,53.88,0,30.816,1.284,61.1a85.3,85.3,0,0,0,16.752,1.68q27.719,0,41.052-17.22T2964.966,492.813Zm283.054,84.181h-41.256q0-8.514-11.748-48.216H3135.46q-12.114,39.06-12.121,48.216h-38.783q0-5.023,30.1-82.5t30.1-85.332h48.732q0,7.344,27.264,84.108t27.276,83.724Zm-59.556-72.84q-22.05-66.512-22.057-71.929h-2.064q0,5.023-22.8,71.929h46.92Zm209.916-51.048q0,30.816-22.885,45.5t-56.137,14.7c-4.043,0-6.911-.084-8.639-.252q0,24.246,1.416,63.937h-36.229q1.672-37.242,1.68-87.78,0-46.4-1.68-80.052h22.428q4.77,0,18.3-.384t23.46-.385q24.48,0,41.376,11.088t16.91,33.625Zm-33.252,7.092q0-27.578-36.612-27.588a103.959,103.959,0,0,0-19.332,1.932q1.422,24.372,1.416,55.176c2.147.18,4.644.252,7.476.252Q3365.128,489.986,3365.128,460.2Zm187.862-7.092q0,30.816-22.872,45.5t-56.147,14.7c-4.045,0-6.912-.084-8.641-.252q0,24.246,1.416,63.937h-36.228q1.674-37.242,1.681-87.78,0-46.4-1.681-80.052h22.428q4.771,0,18.3-.384t23.46-.385q24.479,0,41.376,11.088,16.882,11.09,16.908,33.625Zm-33.252,7.092q0-27.578-36.611-27.588a103.951,103.951,0,0,0-19.332,1.932q1.421,24.372,1.416,55.176c2.147.18,4.644.252,7.476.252Q3519.737,489.986,3519.738,460.2Zm286.032,29.783q0,39.565-24.24,65.616t-59.94,26.04q-34.036,0-56.975-23.916t-22.944-60.768q0-39.564,24.239-65.616t59.94-26.04q34.038,0,56.976,23.844t22.944,60.84Zm-35.58,3.733q0-26.946-13.788-43.7t-34.031-16.752q-18.829,0-31.969,16.884t-13.152,42.672q0,26.8,13.86,43.633t33.96,16.824q18.828,0,31.968-16.956,13.158-16.94,13.152-42.6Zm210.3,83.28h-31.836q0-5.292-35.448-55.812-37.116-53.244-42.276-72.827h-2.064A454.048,454.048,0,0,1,3872.1,499.4q0,31.842,1.8,77.6h-31.717q1.926-39.96,1.932-87.78,0-47.051-1.932-80.052h38.28q0,6.84,31.836,54.528,33.912,50.652,38.929,68.712h1.932a486.409,486.409,0,0,1-3.1-51.564q0-34.918-1.8-71.676h32.232q-1.818,31.968-1.8,80.052Q3978.689,537.664,3980.49,576.994Z" fill="#f9f9fa"/></g></svg>