<svg xmlns="http://www.w3.org/2000/svg" width="48.758" height="40.537" viewBox="0 0 48.758 40.537"><g transform="translate(0.001 0.001)"><path d="M38.924,297.768v8.12c-.037.017,7.6.017,7.607,0,0-13.706,0-15.66,0-15.666S38.96,297.768,38.924,297.768Z" transform="translate(-34.464 -265.371)" fill="#212121"/><path d="M42.416,88.346c-.039,0-12.064.524-12.08.524-.033,0,4.347,4.233,4.347,4.233L17.421,110.365C6.848,99.793,5.881,98.954,5.932,98.954S3.866,101.006-6.342,111.2c-.028,0,3.007,2.952,3.007,2.952l9.266-9.309c8.817,8.817,11.489,11.1,11.489,11.1,0,.028.916-.541,20.238-19.854l3.936,3.872S42.416,88.34,42.416,88.346Z" transform="translate(6.342 -83.385)" fill="#212121"/><path d="M182.455,54.779a14.4,14.4,0,0,0,2.4.614,3.388,3.388,0,0,0,.7.077v2.289c0,.019,2.532.01,2.542,0s-.008-2.357,0-2.366.271-.065.684-.184a4.6,4.6,0,0,0,2.3-1.628,4.338,4.338,0,0,0-1.4-6.592,22.105,22.105,0,0,0-2.414-1.094,5.138,5.138,0,0,1-1.32-.749,1.15,1.15,0,0,1,.286-2.049,2.52,2.52,0,0,1,.818-.168,6.307,6.307,0,0,1,3.09.56,3.015,3.015,0,0,0,.57.251c.167-.532.654-2.1.812-2.647.01-.01-.174-.087-.5-.263a7.424,7.424,0,0,0-1.921-.571,4.678,4.678,0,0,0-.877-.088c-.01-1.241.032-2.185,0-2.168.007,0-1.606,0-1.783,0a6.339,6.339,0,0,1-.69,0c.006,0,0,2.065,0,2.331.019.025-.01-.075-.749.191a4.135,4.135,0,0,0-3.025,3.833,3.919,3.919,0,0,0,2.217,3.754,24.135,24.135,0,0,0,2.779,1.241,4.342,4.342,0,0,1,1.015.591,1.387,1.387,0,0,1-.335,2.434,3.441,3.441,0,0,1-1.783.236,7.779,7.779,0,0,1-2.731-.75c-.5-.266-.624-.372-.617-.349-.148.473-.959,2.824-.944,2.831A6.559,6.559,0,0,0,182.455,54.779Z" transform="translate(-163.055 -38.002)" fill="#212121"/><path d="M145.731,318.2s-.01,12.941-.01,12.919c.021,0,7.641.021,7.637,0V325.5Z" transform="translate(-130.738 -290.593)" fill="#212121"/><path d="M253.672,314.647V320.8c.03-.05,7.534,0,7.533,0,0-12.454.021-14.026,0-14.047C261.2,306.752,253.68,314.6,253.672,314.647Z" transform="translate(-228.053 -280.272)" fill="#212121"/><path d="M359.525,210.729v16.632c.015.031,7.618-.005,7.626,0v-24a1.907,1.907,0,0,0-.02-.236Z" transform="translate(-323.476 -186.853)" fill="#212121"/></g></svg>