<svg xmlns="http://www.w3.org/2000/svg" width="40.34" height="40.34" viewBox="0 0 40.34 40.34"><g transform="translate(0.001)"><g transform="translate(5.592 5.98)"><path d="M95.937,80.573a14.344,14.344,0,0,0-13-4.468q-.438.074-.87.176-.582.136-1.152.319a14.352,14.352,0,0,0-3.058,25.914c.089.054.179.105.269.157a14.261,14.261,0,0,0,6.542,1.923c.214.01.428.016.642.016a14.514,14.514,0,0,0,6.219-1.408l.158-.077a14.337,14.337,0,0,0,7.676-9.811A14.422,14.422,0,0,0,95.937,80.573ZM79.609,96.25l.758,4.428a11.777,11.777,0,0,1-1.044-.566,11.56,11.56,0,0,1-4.381-14.886l3.366,1.926a2.862,2.862,0,0,1,1.349,3.171.971.971,0,0,0,.237.909l.1.111a2.866,2.866,0,0,1,.044,3.872l-.2.217A.97.97,0,0,0,79.609,96.25Zm-.88-12.765a.938.938,0,0,1-.689.092l-1.788-.45A11.541,11.541,0,0,1,83.983,78.8l-.41,1.628a.938.938,0,0,1-.45.589Zm9.323,17.989a11.539,11.539,0,0,1-4.284.224l-.215-1.311a.938.938,0,0,1,.546-1.009l.9-.4a3.367,3.367,0,0,1,4.166,1.2l.483.719.091.026A11.709,11.709,0,0,1,88.052,101.475Zm8.263-7.661-.6-.573a2.04,2.04,0,0,0-2.913.093,3.937,3.937,0,0,1-2.219,1.209l-2.36.406a2.737,2.737,0,0,1-3.2-2.711l.011-2.125a2.051,2.051,0,0,0-.41-1.237L83.4,87.247a.938.938,0,0,1-.048-1.058l1.936-3.124a.938.938,0,0,1,.761-.443l4.485-.174,1.473-1.61A11.569,11.569,0,0,1,96.316,93.814Z" transform="translate(-70.978 -75.9)" fill="#212121"/></g><g transform="translate(0)"><path d="M34.7,5.436l-.356.385A20.17,20.17,0,0,0,0,20.17a1.407,1.407,0,0,0,2.814,0A17.356,17.356,0,0,1,32.38,7.835c.018.017.036.033.055.049l-.418.451a.859.859,0,0,0,.687,1.44L35.295,9.6a.859.859,0,0,0,.8-.828l.092-2.728A.859.859,0,0,0,34.7,5.436Z" transform="translate(0 0)" fill="#212121"/></g><g transform="translate(4.751 18.763)"><path d="M94.486,238.14a1.407,1.407,0,0,0-1.407,1.407,17.356,17.356,0,0,1-28.8,13.052,1.419,1.419,0,0,0-.161-.12l.356-.385a.857.857,0,0,0-.687-1.44l-1.4.093-1.19.079a.859.859,0,0,0-.8.828l-.092,2.728a.859.859,0,0,0,1.488.612l.445-.481a1.412,1.412,0,0,0,.189.2,20.17,20.17,0,0,0,33.466-15.167A1.407,1.407,0,0,0,94.486,238.14Z" transform="translate(-60.305 -238.14)" fill="#212121"/></g></g></svg>