<svg xmlns="http://www.w3.org/2000/svg" width="64.084" height="29.953" viewBox="0 0 64.084 29.953"><path d="M22585.084,20614.955h-12.928v-4.086h12.928v4.086Zm-14.289,0h-12.926l0-4.086h12.924v4.086Zm-14.662,0H22521V20585h35.133v4.086h-31.049v21.781h31.049v4.086Zm28.951-4.857h-12.928v-4.084h12.928v4.084Zm-14.289,0h-12.926l0-4.084h12.924v4.084Zm-25.867-1.125a8.959,8.959,0,1,1,3.5-.707A8.935,8.935,0,0,1,22544.928,20608.973Zm0-15.256a6.266,6.266,0,1,0,6.266,6.266A6.273,6.273,0,0,0,22544.928,20593.717Zm-.4,11.285h0v-1.205a4.259,4.259,0,0,1-2.059-.529l.322-.807a3.915,3.915,0,0,0,1.938.518c.943,0,1.6-.482,1.6-1.174a1.064,1.064,0,0,0-.389-.826,3.488,3.488,0,0,0-1.135-.6,5.02,5.02,0,0,1-1.623-.826,1.567,1.567,0,0,1-.6-1.248,1.713,1.713,0,0,1,.553-1.27,2.665,2.665,0,0,1,1.479-.66v-1.213h.834v1.162a3.954,3.954,0,0,1,1.75.42l-.336.787a3.562,3.562,0,0,0-1.654-.408h-.041c-1.053,0-1.426.555-1.426,1.031,0,.641.537.949,1.668,1.361a4.132,4.132,0,0,1,1.561.885,1.773,1.773,0,0,1,.523,1.309,1.826,1.826,0,0,1-.137.691,1.872,1.872,0,0,1-.406.609,2.744,2.744,0,0,1-1.582.74V20605Zm40.559-.156h-12.928v-4.084h12.928v4.084Zm-14.289,0h-12.926l0-4.084h12.924v4.084Zm-37.1-3.4h0l-5.811-.014.014-2.92,5.811.016-.014,2.918Zm51.389-1.852h-12.928v-4.086h12.928v4.086Zm-14.289,0h-12.926l0-4.086h12.924v4.086Zm0-5.254h-12.926l0-4.086,12.924,0v4.084Zm0-5.252h-12.926l0-4.086h12.924v4.086Z" transform="translate(-22521 -20585.002)" fill="#ffc409"/></svg>