<svg xmlns="http://www.w3.org/2000/svg" width="285.895" height="146.074" viewBox="0 0 285.895 146.074"><g transform="translate(703.602 11333)"><path d="M24.716-23.7,25-11.994H23.939a11.99,11.99,0,0,0-3.692-7.085,9.281,9.281,0,0,0-6.36-2.681A5.956,5.956,0,0,0,9.7-20.349,4.3,4.3,0,0,0,8.162-17.1a3.949,3.949,0,0,0,.544,2.072,8.812,8.812,0,0,0,2.409,2.409,54.225,54.225,0,0,0,5.622,3.031Q22.9-6.554,25.053-3.86a9.685,9.685,0,0,1,2.124,6.166,9.972,9.972,0,0,1-3.433,7.577,12.34,12.34,0,0,1-8.717,3.173,14.067,14.067,0,0,1-3.135-.337,23.673,23.673,0,0,1-3.7-1.269,5.607,5.607,0,0,0-2.047-.518,2.538,2.538,0,0,0-1.425.518A3.623,3.623,0,0,0,3.5,13.031H2.54V-.233H3.5A15.212,15.212,0,0,0,7.89,8.3a10.279,10.279,0,0,0,7.008,2.94,6.575,6.575,0,0,0,4.624-1.58,4.765,4.765,0,0,0,1.062-6.088A7.657,7.657,0,0,0,18.576,1.36,30.334,30.334,0,0,0,13.81-1.373,41.193,41.193,0,0,1,6.919-5.388a12.32,12.32,0,0,1-3.225-3.7A9.19,9.19,0,0,1,2.566-13.6a9.537,9.537,0,0,1,3.083-7.15A10.784,10.784,0,0,1,13.421-23.7a13.217,13.217,0,0,1,3.316.414A16.577,16.577,0,0,1,19.7-22.136a6.989,6.989,0,0,0,2.448.842,1.385,1.385,0,0,0,1.062-.414,4.777,4.777,0,0,0,.725-1.995ZM43.438-20.88v14.3h.7a5.548,5.548,0,0,0,4.844-2.1A12.909,12.909,0,0,0,50.9-14.87h.984V3.524H50.9A13.772,13.772,0,0,0,49.591-1.4a5.638,5.638,0,0,0-2.319-2.578,8.814,8.814,0,0,0-3.834-.661v9.9a14.275,14.275,0,0,0,.246,3.549A2.131,2.131,0,0,0,44.6,9.87a4.317,4.317,0,0,0,2.176.414h2.1a12.609,12.609,0,0,0,7.888-2.28,12.7,12.7,0,0,0,4.262-6.943h.959l-1.58,11.165H30.045v-.959h1.166a4.857,4.857,0,0,0,2.461-.544,2.359,2.359,0,0,0,1.036-1.243,10.673,10.673,0,0,0,.285-3.264V-16.89a18.416,18.416,0,0,0-.13-2.927,2.479,2.479,0,0,0-.959-1.4,4.455,4.455,0,0,0-2.694-.725H30.045V-22.9h29.4v10.388h-.984a12.666,12.666,0,0,0-2.111-5.466,7.843,7.843,0,0,0-3.847-2.435,20.833,20.833,0,0,0-5.44-.466Zm34.706,17.1V6.062a10.867,10.867,0,0,0,.35,3.588,2.559,2.559,0,0,0,1.231,1.179,8.291,8.291,0,0,0,3.29.44v.959H65.037v-.959a8.064,8.064,0,0,0,3.3-.453,2.646,2.646,0,0,0,1.218-1.179,10.734,10.734,0,0,0,.35-3.575v-22.8a10.868,10.868,0,0,0-.35-3.588A2.559,2.559,0,0,0,68.327-21.5a8.291,8.291,0,0,0-3.29-.44V-22.9H81.357a35.62,35.62,0,0,1,9.326.881A9.4,9.4,0,0,1,95.5-18.769a8.723,8.723,0,0,1,1.865,5.557,8.3,8.3,0,0,1-2.8,6.425,11.565,11.565,0,0,1-5,2.409L98.015,7.513a17.976,17.976,0,0,0,2.357,2.876,4.388,4.388,0,0,0,2.461.881v.959H91.771L80.451-3.782Zm0-17.227V-5.621h1.477a16.508,16.508,0,0,0,5.388-.661,5.368,5.368,0,0,0,2.811-2.383,8.725,8.725,0,0,0,1.023-4.495q0-4.015-1.878-5.932t-6.049-1.917ZM133.654-22.9v9.507h-.933a15.009,15.009,0,0,0-1.839-4.728,7.083,7.083,0,0,0-2.772-2.293,8.874,8.874,0,0,0-3.446-.466h-2.616v27.1a11.068,11.068,0,0,0,.3,3.368,2.672,2.672,0,0,0,1.166,1.179,4.716,4.716,0,0,0,2.37.505h1.166v.959H108.655v-.959h1.166a4.857,4.857,0,0,0,2.461-.544,2.477,2.477,0,0,0,1.062-1.243,10.673,10.673,0,0,0,.285-3.264v-27.1H111.09q-3.549,0-5.155,1.5a9.937,9.937,0,0,0-2.85,5.984H102.1V-22.9ZM14.681,45.577,5.372,25.308V41.4a4.928,4.928,0,0,0,.48,2.771,2.633,2.633,0,0,0,2.078.746h.853v.657H.4V44.92h.853A2.447,2.447,0,0,0,3.418,44,5.39,5.39,0,0,0,3.809,41.4V25.663a5.5,5.5,0,0,0-.355-2.309,1.971,1.971,0,0,0-.915-.862A4.907,4.907,0,0,0,.4,22.146v-.657H7.22l8.74,18.848,8.6-18.848h6.821v.657h-.835a2.468,2.468,0,0,0-2.185.924,5.39,5.39,0,0,0-.391,2.594V41.4a4.78,4.78,0,0,0,.5,2.771,2.633,2.633,0,0,0,2.078.746h.835v.657H21.147V44.92H22A2.42,2.42,0,0,0,24.167,44a5.39,5.39,0,0,0,.391-2.594V25.308L15.267,45.577Zm33.889-8.065H39.243l-1.634,3.8a6.018,6.018,0,0,0-.6,2.1,1.218,1.218,0,0,0,.524.968,4.579,4.579,0,0,0,2.265.542v.657H32.209V44.92a4.087,4.087,0,0,0,1.954-.693,10.882,10.882,0,0,0,2.007-3.464l8.473-19.825h.622L53.65,40.976a9.134,9.134,0,0,0,1.839,3.135,3.748,3.748,0,0,0,2.3.808v.657h-9.5V44.92a3.563,3.563,0,0,0,1.945-.48,1.237,1.237,0,0,0,.506-.995,7.365,7.365,0,0,0-.711-2.469Zm-.5-1.315-4.086-9.735L39.794,36.2ZM57.5,21.489h6.537L78.763,39.555V25.663a4.78,4.78,0,0,0-.5-2.771,2.633,2.633,0,0,0-2.078-.746h-.835v-.657h8.385v.657h-.853a2.447,2.447,0,0,0-2.167.924,5.39,5.39,0,0,0-.391,2.594v20.3h-.64l-15.881-19.4V41.4a4.928,4.928,0,0,0,.48,2.771,2.667,2.667,0,0,0,2.078.746h.853v.657H58.832V44.92h.835A2.468,2.468,0,0,0,61.852,44a5.39,5.39,0,0,0,.391-2.594V24.651a10.978,10.978,0,0,0-1.59-1.617,5.838,5.838,0,0,0-1.59-.728,5.662,5.662,0,0,0-1.563-.16Zm43.179,16.023H91.353l-1.634,3.8a6.018,6.018,0,0,0-.6,2.1,1.218,1.218,0,0,0,.524.968,4.579,4.579,0,0,0,2.265.542v.657H84.318V44.92a4.087,4.087,0,0,0,1.954-.693,10.882,10.882,0,0,0,2.007-3.464l8.473-19.825h.622l8.385,20.038a9.134,9.134,0,0,0,1.839,3.135,3.748,3.748,0,0,0,2.3.808v.657h-9.5V44.92a3.563,3.563,0,0,0,1.945-.48,1.237,1.237,0,0,0,.506-.995,7.365,7.365,0,0,0-.711-2.469Zm-.5-1.315L96.1,26.463,91.9,36.2Zm32.237-15.259.622,7.6h-.622a10.4,10.4,0,0,0-2.434-4.281,7.618,7.618,0,0,0-5.525-2.078,7.857,7.857,0,0,0-7,3.642,13.083,13.083,0,0,0-2.007,7.319,14.632,14.632,0,0,0,1.332,6.288,9.352,9.352,0,0,0,3.491,4.166,8.378,8.378,0,0,0,4.432,1.323,9.789,9.789,0,0,0,2.576-.338,10.273,10.273,0,0,0,2.4-.995V36.624a6.438,6.438,0,0,0-.275-2.372,1.859,1.859,0,0,0-.853-.853,4.931,4.931,0,0,0-2.034-.293v-.675h9.326v.675H135.4a1.982,1.982,0,0,0-1.9.924,6.239,6.239,0,0,0-.355,2.594V44a18.048,18.048,0,0,1-4.032,1.617,17.648,17.648,0,0,1-4.423.515q-6.981,0-10.605-4.477a11.956,11.956,0,0,1-2.718-7.745,13.576,13.576,0,0,1,6.5-11.422,12.182,12.182,0,0,1,6.253-1.545,12.317,12.317,0,0,1,2.389.213,21.835,21.835,0,0,1,3.047.941,4.915,4.915,0,0,0,1.332.373.71.71,0,0,0,.577-.311,2.375,2.375,0,0,0,.293-1.217ZM143.747,22.8v9.522h5.294a4.315,4.315,0,0,0,2.753-.622,4,4,0,0,0,1.03-2.878h.657V37.21h-.657a9.167,9.167,0,0,0-.5-2.256,2.224,2.224,0,0,0-1.048-.977,5.351,5.351,0,0,0-2.238-.355h-5.294v7.941a7.376,7.376,0,0,0,.142,1.945,1.117,1.117,0,0,0,.5.551,3.021,3.021,0,0,0,1.35.2h4.086a11.07,11.07,0,0,0,2.967-.284,4.425,4.425,0,0,0,1.776-1.119,13.67,13.67,0,0,0,2.256-3.322h.711l-2.078,6.04H136.89V44.92h.853a3.379,3.379,0,0,0,1.617-.409,1.494,1.494,0,0,0,.773-.853,8.36,8.36,0,0,0,.2-2.327V25.681a5.18,5.18,0,0,0-.462-2.824,2.752,2.752,0,0,0-2.132-.711h-.853v-.657h18.563l.266,5.276h-.693a8.324,8.324,0,0,0-.826-2.611,2.836,2.836,0,0,0-1.341-1.084,8.046,8.046,0,0,0-2.5-.266Zm29.288,22.774-9.308-20.269V41.4a4.928,4.928,0,0,0,.48,2.771,2.633,2.633,0,0,0,2.078.746h.853v.657h-8.385V44.92h.853A2.447,2.447,0,0,0,161.772,44a5.391,5.391,0,0,0,.391-2.594V25.663a5.5,5.5,0,0,0-.355-2.309,1.971,1.971,0,0,0-.915-.862,4.907,4.907,0,0,0-2.141-.346v-.657h6.821l8.74,18.848,8.6-18.848h6.821v.657H188.9a2.468,2.468,0,0,0-2.185.924,5.391,5.391,0,0,0-.391,2.594V41.4a4.78,4.78,0,0,0,.5,2.771,2.633,2.633,0,0,0,2.078.746h.835v.657H179.5V44.92h.853A2.42,2.42,0,0,0,182.521,44a5.391,5.391,0,0,0,.391-2.594V25.308l-9.291,20.269ZM197.881,22.8v9.522h5.294a4.315,4.315,0,0,0,2.753-.622,4,4,0,0,0,1.03-2.878h.657V37.21h-.657a9.168,9.168,0,0,0-.5-2.256,2.224,2.224,0,0,0-1.048-.977,5.351,5.351,0,0,0-2.238-.355h-5.294v7.941a7.375,7.375,0,0,0,.142,1.945,1.117,1.117,0,0,0,.5.551,3.021,3.021,0,0,0,1.35.2h4.086a11.069,11.069,0,0,0,2.967-.284,4.425,4.425,0,0,0,1.776-1.119,13.669,13.669,0,0,0,2.256-3.322h.711l-2.078,6.04H191.024V44.92h.853a3.379,3.379,0,0,0,1.617-.409,1.494,1.494,0,0,0,.773-.853,8.36,8.36,0,0,0,.2-2.327V25.681a5.18,5.18,0,0,0-.462-2.824,2.752,2.752,0,0,0-2.132-.711h-.853v-.657h18.563l.266,5.276h-.693a8.323,8.323,0,0,0-.826-2.611,2.836,2.836,0,0,0-1.341-1.084,8.046,8.046,0,0,0-2.5-.266ZM211.8,21.489h6.537l14.726,18.066V25.663a4.78,4.78,0,0,0-.5-2.771,2.633,2.633,0,0,0-2.078-.746h-.835v-.657h8.385v.657h-.853a2.447,2.447,0,0,0-2.167.924,5.39,5.39,0,0,0-.391,2.594v20.3h-.64l-15.881-19.4V41.4a4.928,4.928,0,0,0,.48,2.771,2.667,2.667,0,0,0,2.078.746h.853v.657h-8.385V44.92h.835A2.468,2.468,0,0,0,216.155,44a5.39,5.39,0,0,0,.391-2.594V24.651a10.978,10.978,0,0,0-1.59-1.617,5.838,5.838,0,0,0-1.59-.728,5.662,5.662,0,0,0-1.563-.16Zm47.585,0,.266,5.649h-.675a6.821,6.821,0,0,0-.533-2.132,3.566,3.566,0,0,0-1.466-1.519A5.111,5.111,0,0,0,254.574,23h-3.393V41.4a4.929,4.929,0,0,0,.48,2.771,2.667,2.667,0,0,0,2.078.746h.835v.657H244.36V44.92h.853A2.447,2.447,0,0,0,247.38,44a5.39,5.39,0,0,0,.391-2.594V23h-2.9a8.074,8.074,0,0,0-2.4.249,3.292,3.292,0,0,0-1.581,1.3,5.25,5.25,0,0,0-.782,2.594h-.675l.284-5.649Z" transform="translate(-704 -11233.054)" fill="#34458c"/><path d="M132.4,118.448l0,0a70.238,70.238,0,0,0,13.19-41.075c0-39.443-32.655-71.532-72.793-71.532C33.175,5.839,1.216,36.3.033,75.192.01,74.422,0,73.682,0,72.992A71.452,71.452,0,0,1,5.837,44.58a72.691,72.691,0,0,1,15.918-23.2A74.116,74.116,0,0,1,45.366,5.736a75.734,75.734,0,0,1,57.824,0A74.116,74.116,0,0,1,126.8,21.379a72.692,72.692,0,0,1,15.918,23.2,72.1,72.1,0,0,1,1.542,52.931A72.369,72.369,0,0,1,132.4,118.448Z" transform="translate(-566.262 -11333)" fill="#34458c"/></g></svg>