<svg xmlns="http://www.w3.org/2000/svg" width="65.347" height="40" viewBox="0 0 65.347 40"><path d="M4809,18297.963v-40h65.347v40Zm31.942-14.295.238.182a6.738,6.738,0,0,0,3.832.975c3.289,0,5.5-1.857,5.5-4.619,0-1.512-.883-2.711-2.692-3.66-1.017-.568-1.632-.949-1.632-1.432,0-.449.475-.936,1.593-.936a4.6,4.6,0,0,1,2.082.51l.4.219,1.11-2.975-.293-.16a6.4,6.4,0,0,0-3.149-.684c-3.148,0-5.349,1.84-5.349,4.471,0,1.91,1.5,2.971,2.822,3.682,1.242.643,1.485,1.01,1.485,1.428,0,.8-.868,1.086-1.607,1.086a5.543,5.543,0,0,1-2.763-.746l-.393-.236Zm17.42-2.293.26,3.26h3.609l-1.563-13.344h-4.037l-6.5,13.344h3.724l1.493-3.26Zm-22.7,3.26h3.477l2.532-13.344H4838.2Zm-9.755,0h3.7l6.884-13.344h-3.882l-2.924,6.188c-.413.879-.771,1.676-1.078,2.4-.057-.762-.117-1.5-.192-2.254l-.6-6.338h-5.9l6.141,4.859-3.648-2.291Zm30.584-6.088.993-2.154c.141-.3.282-.641.421-1,.026.316.05.613.067.871l.208,2.281Z" transform="translate(-4808.999 -18257.963)" fill="#ffc409"/></svg>