<svg xmlns="http://www.w3.org/2000/svg" width="47.594" height="40" viewBox="0 0 47.594 40"><path d="M22552.65,20300h0l-15.816-9.6-.018-.01-15.818-9.6,3.418-2.076,1.8,1.141-1.207.732,13.975,8.484.02.012,13.982,8.486,11.59-7.039-1.32-.8,2.111-1.355,3.219,1.953-15.939,9.676Zm0-5.244h0l-15.816-9.6-.018-.01-15.818-9.6,3.418-2.074,1.8,1.141-1.207.732,13.975,8.484.02.012,13.982,8.484,11.59-7.037-1.32-.8,2.111-1.355,3.219,1.955-15.939,9.676Zm0-5.863h0l-15.818-9.6-.018-.012-15.818-9.6,15.939-9.678,15.818,9.607.018.012,15.818,9.6-15.939,9.676Zm-16.047-26.455-11.592,7.037,13.977,8.484.02.012,13.975,8.49,11.59-7.043-13.975-8.484-.02-.012-13.975-8.484Zm18.193,19.021-3.324-2.01,1.545-.947,3.324,2.008-1.545.949Zm-9.5-2.742a11.378,11.378,0,0,1-2.785-.34,9.035,9.035,0,0,1-2.492-1.014,5.34,5.34,0,0,1-1.674-1.514,2.968,2.968,0,0,1-.561-1.691,3.386,3.386,0,0,1,1.883-2.814,9.051,9.051,0,0,1,4.635-1.143,11.378,11.378,0,0,1,2.785.34,9.01,9.01,0,0,1,2.492,1.014h0a5.36,5.36,0,0,1,1.674,1.514,2.982,2.982,0,0,1,.561,1.691,3.4,3.4,0,0,1-1.883,2.814A9.083,9.083,0,0,1,22545.3,20278.717Zm-.838-7.227a6.344,6.344,0,0,0-3.236.8,2.364,2.364,0,0,0-1.311,1.963,2.784,2.784,0,0,0,1.553,2.232,7.269,7.269,0,0,0,3.678.941,6.324,6.324,0,0,0,3.232-.795,2.363,2.363,0,0,0,1.311-1.961,2.782,2.782,0,0,0-1.555-2.232A7.219,7.219,0,0,0,22544.465,20271.49Zm4.027,4.09h0l-6.58-.309-.139-2.373,2.127.045.064,1.137,4.539.213-.012,1.287Zm-11.937-5.187-3.309-2.02,1.561-.937,3.311,2.018-1.562.939Z" transform="translate(-22520.998 -20260)" fill="#ffc409"/></svg>