<svg xmlns="http://www.w3.org/2000/svg" width="56.111" height="40.002" viewBox="0 0 56.111 40.002"><path d="M23337.92,20579.383h-23.855a4.378,4.378,0,0,1-4.256-5.393l2.141-8.922a4.365,4.365,0,0,1,4.254-3.352h5.3l4.379,4.467,4.377-4.467h5.369a4.376,4.376,0,0,1,4.238,3.281l2.291,8.922a4.382,4.382,0,0,1-4.236,5.463Zm-21.717-13.562a.262.262,0,0,0-.256.205l-2.141,8.92a.26.26,0,0,0,.047.229.272.272,0,0,0,.211.1h23.855a.272.272,0,0,0,.211-.1.292.292,0,0,0,.047-.229l-2.293-8.926a.267.267,0,0,0-.258-.2h-3.645l-3.172,3.234-2.93,2.988-2.932-2.988-3.176-3.234Zm35.385.879h-9.168l-.568-2.211c-.012-.041-.023-.084-.035-.127l-.018-.062-.018-.062h9.625l-1.139-4.436h-1.7l-1.6,1.629-1.758,1.793-1.76-1.793-1.6-1.629h-1.658l-.346,1.441a6.412,6.412,0,0,0-2.227-1.266l.211-.861a2.3,2.3,0,0,1,2.25-1.777h2.789l2.328,2.363,2.326-2.363h2.848a2.312,2.312,0,0,1,2.24,1.742l1.213,4.723a2.306,2.306,0,0,1-.41,2A2.344,2.344,0,0,1,23351.588,20566.7Zm-42.143,0h-9.336a2.319,2.319,0,0,1-2.256-2.855l1.137-4.729a2.3,2.3,0,0,1,2.25-1.777h2.8l2.326,2.363,2.332-2.363h2.844a2.315,2.315,0,0,1,2.244,1.742l.252.955a6.492,6.492,0,0,0-2.2,1.336l-.41-1.57h-1.7l-1.594,1.629-1.758,1.793-1.764-1.793-1.6-1.629h-1.658l-1.061,4.436h9.752q-.047.161-.094.352l-.51,2.109Zm16.406-7.9a9.709,9.709,0,1,1,9.705-9.707A9.722,9.722,0,0,1,23325.852,20558.8Zm0-15.311a5.6,5.6,0,1,0,5.6,5.6A5.625,5.625,0,0,0,23325.852,20543.488Zm19.412,12.6a5.609,5.609,0,1,1,5.609-5.609A5.62,5.62,0,0,1,23345.264,20556.09Zm0-8.756a3.147,3.147,0,1,0,3.146,3.146A3.15,3.15,0,0,0,23345.264,20547.334Zm-38.83,8.756a5.609,5.609,0,1,1,5.609-5.609A5.617,5.617,0,0,1,23306.434,20556.09Zm0-8.756a3.147,3.147,0,1,0,3.146,3.146A3.15,3.15,0,0,0,23306.434,20547.334Z" transform="translate(-23297.791 -20539.381)" fill="#ffc409"/></svg>