<svg xmlns="http://www.w3.org/2000/svg" width="29.092" height="40" viewBox="0 0 29.092 40"><path d="M22916.094,20586H22887v-40h18.182v10.908h10.91V20586Zm-26.533-37.443v34.887h23.977v-23.977h-10.91v-10.91h-13.066Zm21.078,29.631h-7.271v-2.557h7.271v2.557Zm-10.908,0h-7.273v-2.557h7.273v2.557Zm10.885-6.363h-18.158v-2.557h18.158v2.557Zm0-5.455h-18.158v-2.557h18.158v2.557Zm-10.885-7.273h-7.273v-2.555h7.273v2.555Zm16.344-3.1h-9.98v-10h1.818l8.162,8.182V20556Zm-7.424-5.639v3.082h3.076Zm-8.92,3.281h-7.273v-2.557h7.273v2.557Z" transform="translate(-22887.002 -20546.002)" fill="#ffc409"/></svg>