<svg xmlns="http://www.w3.org/2000/svg" width="58" height="31.336" viewBox="0 0 58 31.336"><path d="M22950.756,20156.336H22914V20125h36.756v4.271h-32.479v22.787h32.479v4.277Zm18.855-.477h-4.277l0-25.834h-2.424l4.559-5.025,4.527,5.025h-2.389Zm-6.08,0h-4.277l.006-21.275h4.271Zm-6.08,0h-4.271v-15.174h4.271Zm-18.416-5.785a9.4,9.4,0,0,1-6.648-16.051,9.4,9.4,0,1,1,10.309,15.311A9.378,9.378,0,0,1,22939.035,20150.074Zm0-15.961a6.555,6.555,0,1,0,6.557,6.557A6.562,6.562,0,0,0,22939.035,20134.113Zm-1.41,10.725v0l-3.713-3.707,2.02-2.016,1.773,1.775,4.48-4.121,1.926,2.1-6.486,5.971Zm-10.34-2.637h0l-6.084-.014.021-3.055,6.076.016-.014,3.053Z" transform="translate(-22914 -20125)" fill="#ffc409"/></svg>