<svg xmlns="http://www.w3.org/2000/svg" width="42.765" height="40.203" viewBox="0 0 42.765 40.203"><g transform="translate(0 -1.332)"><g transform="translate(0 1.333)"><path d="M9.862,34.592H33.673a11.63,11.63,0,0,0-8.757-11.151,7.632,7.632,0,1,0-6.293,0A11.629,11.629,0,0,0,9.862,34.592Z" transform="translate(-0.385 -1.627)" fill="#ffb600"/><path d="M1.441,13.668a1.442,1.442,0,0,0,1.441-1.441V4.216h8.01a1.441,1.441,0,1,0,0-2.883H2.667A2.669,2.669,0,0,0,0,4v8.227A1.441,1.441,0,0,0,1.441,13.668Z" transform="translate(0 -1.333)" fill="#ffb600"/><path d="M41.334,1.333H33.106a1.441,1.441,0,0,0,0,2.883h8.01v8.01a1.441,1.441,0,1,0,2.883,0V4A2.67,2.67,0,0,0,41.334,1.333Z" transform="translate(-1.237 -1.333)" fill="#ffb600"/><path d="M42.559,30.333a1.442,1.442,0,0,0-1.441,1.441v8.01h-8.01a1.441,1.441,0,1,0,0,2.883h8.226A2.671,2.671,0,0,0,44,40V31.774A1.442,1.442,0,0,0,42.559,30.333Z" transform="translate(-1.237 -2.466)" fill="#ffb600"/><path d="M10.893,39.785H2.883v-8.01a1.441,1.441,0,0,0-2.883,0V40a2.67,2.67,0,0,0,2.667,2.668h8.227a1.441,1.441,0,1,0,0-2.883Z" transform="translate(0 -2.466)" fill="#ffb600"/></g></g></svg>