<svg xmlns="http://www.w3.org/2000/svg" width="51.357" height="40.658" viewBox="0 0 51.357 40.658"><g transform="translate(-0.001)"><g transform="translate(0.001)"><circle cx="2.5" cy="2.5" r="2.5" transform="translate(23.417 25.455)" fill="#ffb600"/><path d="M25.679,0A25.683,25.683,0,0,0,4.155,39.687a2.14,2.14,0,0,0,1.792.971H45.412a2.14,2.14,0,0,0,1.792-.971A25.683,25.683,0,0,0,25.679,0Zm5.559,31.029a6.42,6.42,0,1,1-11.119-6.42C21.89,21.543,32.1,16.7,32.1,16.7S33.009,27.963,31.239,31.029Zm15.211,3.21H44.112a20.2,20.2,0,0,0,1.783-6.42H42.8v-4.28h3.1a20.157,20.157,0,0,0-1.643-6.112l-2.676,1.545-2.14-3.706,2.672-1.543a20.5,20.5,0,0,0-4.471-4.472l-1.543,2.672-3.706-2.14,1.545-2.676a20.157,20.157,0,0,0-6.113-1.643v3.1h-4.28v-3.1a20.156,20.156,0,0,0-6.112,1.643l1.545,2.676-3.706,2.14L13.724,9.251a20.5,20.5,0,0,0-4.472,4.472l2.672,1.543-2.14,3.706L7.107,17.427a20.157,20.157,0,0,0-1.643,6.112h3.1v4.28h-3.1a20.2,20.2,0,0,0,1.783,6.42H4.909a22.469,22.469,0,1,1,41.541,0Z" transform="translate(-0.001)" fill="#ffb600"/></g></g></svg>