<svg xmlns="http://www.w3.org/2000/svg" width="65.34" height="40.002" viewBox="0 0 65.34 40.002"><g transform="translate(0 -69.547)"><g transform="translate(0 69.547)"><path d="M0,69.547v40H65.34v-40ZM38.727,98.93A9.563,9.563,0,0,1,32.586,96.7a9.544,9.544,0,1,1-.011-14.767A9.612,9.612,0,1,1,38.727,98.93Z" transform="translate(0 -69.547)" fill="#ffc409"/><g transform="translate(34.025 12.217)"><path d="M191.486,136.612a7.5,7.5,0,0,0-4.7,1.653,9.5,9.5,0,0,1,.007,11.8,7.548,7.548,0,1,0,4.695-13.452Z" transform="translate(-186.785 -136.612)" fill="#ffc409"/></g></g></g></svg>