<svg xmlns="http://www.w3.org/2000/svg" width="65.003" height="40.004" viewBox="0 0 65.003 40.004"><path d="M5053,19094h-65v-40h65v40h0Zm-42.963-31.857a.528.528,0,0,0-.537.531v12.6c0,3.738.89,6.574,2.645,8.43s4.371,2.793,7.763,2.793h.038c3.617,0,6.334-.939,8.075-2.793s2.626-4.74,2.626-8.564v-1.84h-7.255v2.416a5.8,5.8,0,0,1-.843,3.455,3.128,3.128,0,0,1-2.45,1.176l-.032,0a3.119,3.119,0,0,1-2.448-1.246,6.127,6.127,0,0,1-.863-3.547v-12.881a.535.535,0,0,0-.537-.531Zm13.92-.01a.56.56,0,0,0-.561.561v9.2h7.25v-4.074a5.7,5.7,0,0,1-5.693-5.687Zm2.425,0h0v.01a4.272,4.272,0,0,0,4.27,4.266v-3.715a.566.566,0,0,0-.561-.561Z" transform="translate(-4987.999 -19053.998)" fill="#ffc409"/></svg>