<svg xmlns="http://www.w3.org/2000/svg" width="42.857" height="40" viewBox="0 0 42.857 40"><path d="M58.857,40.571V42a.714.714,0,0,1-.714.714H56v1.071a1.071,1.071,0,0,1-1.071,1.071h-35a1.071,1.071,0,0,1-1.071-1.071V42.714H16.714A.714.714,0,0,1,16,42V40.571a.714.714,0,0,1,.441-.66l20.714-7.857a.714.714,0,0,1,.546,0l20.714,7.857A.714.714,0,0,1,58.857,40.571ZM56.714,67.714H18.143A2.143,2.143,0,0,0,16,69.857v1.429a.714.714,0,0,0,.714.714H58.143a.714.714,0,0,0,.714-.714V69.857A2.143,2.143,0,0,0,56.714,67.714ZM23.143,46.285V63.428H19.929A1.071,1.071,0,0,0,18.857,64.5v1.786H56V64.5a1.071,1.071,0,0,0-1.071-1.071H51.714V46.285H46V63.428H40.286V46.285H34.571V63.428H28.857V46.285Z" transform="translate(-16 -32)" fill="#ffb600"/></svg>