<svg xmlns="http://www.w3.org/2000/svg" width="23.639" height="27.016" viewBox="0 0 23.639 27.016">
  <path id="calculator-solid" d="M21.106,0H2.533A2.6,2.6,0,0,0,0,2.533v21.95a2.6,2.6,0,0,0,2.533,2.533H21.106a2.6,2.6,0,0,0,2.533-2.533V2.533A2.6,2.6,0,0,0,21.106,0ZM6.754,22.963a.726.726,0,0,1-.675.675H4.052a.726.726,0,0,1-.675-.675V20.937a.726.726,0,0,1,.675-.675H6.079a.726.726,0,0,1,.675.675Zm0-6.754a.726.726,0,0,1-.675.675H4.052a.726.726,0,0,1-.675-.675V14.183a.726.726,0,0,1,.675-.675H6.079a.726.726,0,0,1,.675.675Zm6.754,6.754a.726.726,0,0,1-.675.675H10.806a.726.726,0,0,1-.675-.675V20.937a.726.726,0,0,1,.675-.675h2.026a.726.726,0,0,1,.675.675Zm0-6.754a.726.726,0,0,1-.675.675H10.806a.726.726,0,0,1-.675-.675V14.183a.726.726,0,0,1,.675-.675h2.026a.726.726,0,0,1,.675.675Zm6.754,6.754a.726.726,0,0,1-.675.675H17.56a.726.726,0,0,1-.675-.675v-8.78a.726.726,0,0,1,.675-.675h2.026a.726.726,0,0,1,.675.675Zm0-13.508a.726.726,0,0,1-.675.675H4.052a.726.726,0,0,1-.675-.675v-5.4a.726.726,0,0,1,.675-.675H19.586a.726.726,0,0,1,.675.675Z" fill="#ffc409"/>
</svg>
