<svg xmlns="http://www.w3.org/2000/svg" width="34.515" height="30.679" viewBox="0 0 34.515 30.679">
  <path id="hand-holding-usd-solid" d="M16.242,8.647l3.252.857a.515.515,0,0,1,.4.485.528.528,0,0,1-.546.5H17.212a1.8,1.8,0,0,1-.671-.132.859.859,0,0,0-.917.12l-1.138,1.049a.7.7,0,0,0-.135.159.684.684,0,0,0,.232.943,5.02,5.02,0,0,0,2.068.689v1.061a1.006,1.006,0,0,0,1.041.959h1.041a1.006,1.006,0,0,0,1.041-.959V13.326A3.441,3.441,0,0,0,22.98,9.551a3.634,3.634,0,0,0-2.79-2.858l-3.252-.857a.515.515,0,0,1-.4-.485.528.528,0,0,1,.546-.5h2.133a1.8,1.8,0,0,1,.673.132.859.859,0,0,0,.917-.12l1.138-1.049a.678.678,0,0,0,.13-.156.685.685,0,0,0-.23-.946,5.023,5.023,0,0,0-2.068-.689V.959A1,1,0,0,0,18.74,0H17.7a1,1,0,0,0-1.041.959V2.013a3.443,3.443,0,0,0-3.206,3.775A3.637,3.637,0,0,0,16.242,8.647ZM33.871,19.66a1.983,1.983,0,0,0-2.553,0l-5.537,4.428a3.813,3.813,0,0,1-2.4.839H16.3a.959.959,0,0,1,0-1.917H20.99a1.989,1.989,0,0,0,1.992-1.594,1.87,1.87,0,0,0,.028-.327,1.917,1.917,0,0,0-1.917-1.914H11.5a7.05,7.05,0,0,0-4.44,1.575L4.278,23.01H.959A.959.959,0,0,0,0,23.968v5.752a.959.959,0,0,0,.959.959H22.337a3.835,3.835,0,0,0,2.4-.839L33.8,22.59a1.917,1.917,0,0,0,.077-2.93Z" transform="translate(0 0)" fill="#ffc409"/>
</svg>
