<svg xmlns="http://www.w3.org/2000/svg" width="34.767" height="24" viewBox="0 0 34.767 24">
  <path id="Exclusion_1" data-name="Exclusion 1" d="M10473.9,8226a1.1,1.1,0,0,1-.784-.323l-8.734-8.74a1.134,1.134,0,0,1-.25-1.251,1.149,1.149,0,0,1,.4-.5,1.134,1.134,0,0,1,.659-.2h5.036v-9.648a1.377,1.377,0,0,1,1.379-1.378h4.594a1.375,1.375,0,0,1,1.378,1.378v9.648h5.036a1.128,1.128,0,0,1,1.06.707,1.153,1.153,0,0,1,.073.64,1.138,1.138,0,0,1-.323.611l-8.74,8.74A1.1,1.1,0,0,1,10473.9,8226Zm-12.746-1.953h-4.594a1.375,1.375,0,0,1-1.379-1.378v-9.647h-5.036a1.136,1.136,0,0,1-.659-.2,1.164,1.164,0,0,1-.473-1.143,1.133,1.133,0,0,1,.322-.611l8.734-8.74a1.113,1.113,0,0,1,1.568,0l8.74,8.74a1.143,1.143,0,0,1-.811,1.958h-5.036v9.647a1.374,1.374,0,0,1-1.378,1.378Z" transform="translate(-10449 -8202)" fill="#ffc409"/>
</svg>
