<svg xmlns="http://www.w3.org/2000/svg" width="6197.605" height="2063.881" viewBox="0 0 6197.605 2063.881"><g transform="translate(26.438 5.803)"><path d="M6141.166,1806.571c0,53.31-18.627,104.434-51.777,142.111s-78.106,58.815-124.963,58.759H180.533c-97.619.116-176.844-89.809-176.971-200.87V204.694C3.689,93.589,82.877,3.59,180.533,3.561H5964.38c97.629,0,176.765,90.059,176.74,201.133l.046,1601.877Z" transform="translate(0 20.637)" fill="none" stroke="#fff" stroke-width="60"/><g transform="translate(-173 93)"><path d="M842.194,643.736C840.871,496.718,962.6,425.194,968.171,421.864c-68.943-100.49-175.8-114.22-213.353-115.315-89.749-9.442-176.806,53.689-222.524,53.689-46.631,0-117.034-52.777-192.912-51.226-97.642,1.505-188.988,58.023-239.087,145.786C-3.1,633.746,74.013,896.718,173.07,1041.363c49.551,70.886,107.452,149.937,183.239,147.155,74.144-3.011,101.84-47.212,191.315-47.212,88.654,0,114.661,47.212,191.954,45.433,79.574-1.232,129.673-71.16,177.49-142.639,57.262-81.149,80.258-161.158,81.171-165.264-1.825-.639-154.494-58.935-156.045-235.1ZM696.186,211.4c39.878-49.857,67.163-117.687,59.589-186.52-57.718,2.554-129.9,39.913-171.467,88.676-36.776,42.969-69.627,113.4-61.141,179.633C588,298.018,654.574,260.477,696.186,211.4Z" transform="translate(495.418 242.315)" fill="#fff"/><g transform="translate(1961.618 804.628)"><path d="M682.434,688.049H578.814l-56.76-178.31H324.762l-54.068,178.31H169.812L365.324,81h120.73l196.38,607.047ZM504.944,434.93,453.613,276.417Q445.469,252.127,423,162.06h-1.825q-9.034,38.727-28.836,114.357L341.872,434.93Zm679.3,28.874q0,111.666-60.684,176.485-54.342,57.68-134.966,57.658-86.988,0-125.019-62.082V865.537H766.3V394.2q0-70.133-3.6-143.87h85.551l5.43,69.381H855.5q48.661-78.412,147.741-78.412,77.475,0,129.262,61.216Q1184.174,363.885,1184.243,463.8Zm-99.1,3.558q0-63.907-28.836-105.417-31.551-43.175-84.684-43.2c-24,0-45.81,8.028-65.293,23.857q-29.293,23.948-38.281,62.63a126.96,126.96,0,0,0-4.517,29.6v73.03q0,47.691,29.293,80.648,29.293,32.843,76.106,32.889c36.639,0,65.156-14.186,85.551-42.331Q1085.14,536.72,1085.14,467.362Zm602.69-3.558q0,111.666-60.684,176.485-54.41,57.68-135.011,57.658-86.988,0-125.018-62.082V865.537h-97.277V394.2q0-70.133-3.6-143.87h85.551l5.43,69.381h1.825q48.593-78.412,147.741-78.412,77.406,0,129.308,61.216,51.6,61.375,51.741,161.3Zm-99.148,3.558q0-63.907-28.882-105.417-31.551-43.175-84.593-43.2c-24,0-45.81,8.028-65.384,23.857q-29.293,23.948-38.235,62.63c-2.966,12.042-4.563,21.85-4.563,29.6v73.03q0,47.691,29.247,80.648c19.528,21.85,44.9,32.889,76.2,32.889,36.684,0,65.2-14.186,85.551-42.331Q1588.682,536.72,1588.682,467.362Zm662.189,50.4q0,77.523-53.977,126.126-59.269,53.1-165.4,53.142-98.007,0-157.231-37.815l22.494-81.058q63.992,37.906,140.532,37.861,55.026,0,85.551-24.769c20.4-16.513,30.707-38.59,30.707-66.142,0-24.678-8.532-45.341-25.278-62.173-16.837-16.786-44.669-32.432-83.772-46.8q-159.466-59.459-159.512-173.885,0-74.717,56.3-122.477,56.258-47.759,149.11-47.759,82.881,0,137.839,28.829l-24.41,79.279q-51.6-27.917-116.669-27.916c-34.312,0-61.232,8.439-80.486,25.225-16.2,15.007-24.411,33.3-24.411,55.012,0,23.948,9.354,43.836,27.969,59.437q24.229,21.553,88.243,46.8,78.434,31.611,115.3,73.805,37.163,42.285,37.1,105.28ZM2573.319,323.31H2466.094V535.831q0,81.081,56.761,81.013c17.384,0,31.8-1.46,43.209-4.516l2.692,73.851q-28.745,10.742-75.65,10.765-57.627,0-90.114-35.169-32.372-35.169-32.441-118.006V323.127h-63.878V250.143h63.878V170l95.544-28.829V250.143h107.224V323.31Zm482.828,142.274q0,100.924-57.673,165.72-60.3,66.712-160.334,66.644-96.5,0-153.627-63.861-57.216-63.975-57.216-161.2,0-101.745,59-166.587,59.065-64.865,159.057-64.865,96.364,0,154.9,63.952,55.984,61.991,55.893,160.2Zm-100.837,2.235q0-60.144-26.053-103.273-30.593-52.138-87.422-52.138c-38.966,0-68.852,17.379-89.2,52.138q-26.145,43.175-26.1,105.1,0,60.212,26.1,103.318c21.034,34.759,50.373,52.138,88.38,52.138q55.78,0,87.422-53c17.885-29.467,26.874-64.089,26.874-104.276Zm417.17-131.965a169.324,169.324,0,0,0-30.662-2.691q-51.331,0-79.3,38.773-24.228,34.211-24.274,86.441V688.049h-97.277V388.175q.131-68.925-2.829-137.8h84.729l3.56,83.749h2.692c10.312-28.783,26.464-52,48.639-69.381a117.645,117.645,0,0,1,70.312-23.446,156.2,156.2,0,0,1,24.318,1.779l.092,92.781Zm435.055,112.624a228.1,228.1,0,0,1-3.559,44.11H3512.145q1.643,64.865,42.342,99.167,36.89,30.516,95.452,30.562,64.813,0,118.083-20.664l15.24,67.465q-62.144,27.1-146.783,27.05-101.84,0-159.969-59.847-58.038-59.87-58.083-160.748,0-98.939,54.114-164.762,56.669-70.2,153.079-70.2,94.654,0,143.315,70.2,38.532,55.628,38.6,137.667Zm-92.76-25.225c.685-28.874-5.7-53.735-18.89-74.763-16.837-27.1-42.753-40.6-77.475-40.6-31.8,0-57.719,13.183-77.429,39.64-16.2,21.029-25.825,46.3-28.791,75.63l202.585.091Z" transform="translate(-169.812 -72.016)" fill="#fff"/></g><g transform="translate(2018.56 282.517)"><path d="M244.753,342.7a621.3,621.3,0,0,1-69.947-3.558V45.651a529.686,529.686,0,0,1,82.357-6.2c111.559,0,162.935,54.875,162.935,144.326C420.1,286.956,359.414,342.7,244.753,342.7ZM261.088,77.08c-15.057,0-27.878.912-38.51,3.1v223.1c5.749.912,16.791,1.323,32.3,1.323,73.095,0,114.707-41.6,114.707-119.512C369.589,115.625,331.947,77.08,261.088,77.08ZM580.2,344.932c-62.874,0-103.62-46.938-103.62-110.662,0-66.416,41.612-113.764,107.179-113.764,61.962,0,103.619,44.7,103.619,110.252,0,67.237-42.935,114.175-107.178,114.175Zm1.825-189.485c-34.54,0-56.669,32.3-56.669,77.455,0,44.292,22.585,76.588,56.213,76.588s56.213-34.531,56.213-77.5c0-43.791-22.129-76.542-55.756-76.542Zm463.892-30.517-67.3,215.121H934.774L906.9,246.632A708.084,708.084,0,0,1,889.6,177.16h-.912c-3.513,23.446-10.175,46.938-17.247,69.472l-29.658,93.42h-44.3L734.151,124.931h49.14L807.657,227.2q8.623,36.538,14.6,69.061h.913c3.513-18.109,9.262-40.734,17.7-68.605l30.57-102.68h38.966l29.247,100.49c7.072,24.359,12.821,48.261,17.293,70.84h1.278a619.087,619.087,0,0,1,14.6-70.84l26.144-100.49,46.951-.046Zm247.755,215.121H1245.86V216.526c0-38.043-14.6-57.11-43.391-57.11-28.334,0-47.817,24.358-47.817,52.685V340.052h-47.818V186.42c0-19.021-.456-39.412-1.779-61.535h42.068l2.236,33.208h1.323c12.867-22.99,38.966-37.587,68.213-37.587,45.171,0,74.829,34.531,74.829,90.729l-.045,128.817Zm131.863,0h-47.863V26.219h47.863Zm174.342,4.881c-62.829,0-103.619-46.938-103.619-110.662,0-66.416,41.612-113.764,107.133-113.764,62.007,0,103.62,44.7,103.62,110.252.046,67.237-42.935,114.175-107.133,114.175Zm1.78-189.485c-34.54,0-56.669,32.3-56.669,77.455,0,44.292,22.631,76.588,56.167,76.588,33.673,0,56.213-34.531,56.213-77.5.046-43.791-22.038-76.542-55.711-76.542Zm293.885,184.6-3.467-24.769H1890.8c-14.6,19.934-35.909,29.65-62.92,29.65-38.555,0-65.931-27-65.931-63.314,0-53.1,46.038-80.556,125.749-80.556v-3.969c0-28.327-15.012-42.513-44.669-42.513-21.216,0-39.833,5.337-56.213,15.965l-9.719-31.429c19.894-12.407,44.715-18.611,73.871-18.611,56.212,0,84.593,29.65,84.593,89v79.234c0,21.713.958,38.545,3.1,51.363l-43.118-.046Zm-6.57-107.15c-53.111,0-79.757,12.863-79.757,43.38,0,22.579,13.734,33.618,32.806,33.618,24.319,0,46.95-18.565,46.95-43.791Zm278.782,107.15-2.235-34.531H2164.2c-13.734,26.092-36.821,39.412-69.08,39.412-51.878,0-90.3-45.615-90.3-109.8,0-67.282,39.833-114.676,94.221-114.676,28.79,0,49.186,9.716,60.684,29.239h.958V26.219h47.864V282.075c0,20.8.5,40.278,1.779,57.977h-42.57Zm-7.072-126.582c0-30.106-19.939-55.787-50.372-55.787-35.452,0-57.125,31.429-57.125,75.676,0,43.38,22.493,73.075,56.167,73.075,30.068,0,51.331-26.137,51.331-57.11V213.47Zm351.33,131.463c-62.828,0-103.573-46.938-103.573-110.662,0-66.416,41.612-113.764,107.133-113.764,62.007,0,103.62,44.7,103.62,110.252.046,67.237-42.89,114.175-107.179,114.175Zm1.78-189.485c-34.494,0-56.624,32.3-56.624,77.455,0,44.292,22.586,76.588,56.167,76.588,33.673,0,56.213-34.531,56.213-77.5C2569.645,188.2,2547.515,155.447,2513.8,155.447Zm362.554,184.6h-47.863V216.526c0-38.043-14.6-57.11-43.392-57.11-28.335,0-47.771,24.358-47.771,52.685V340.052h-47.863V186.42c0-19.021-.456-39.412-1.78-61.535h42.068l2.236,33.208h1.323c12.821-22.99,38.965-37.632,68.167-37.632,45.171,0,74.874,34.531,74.874,90.729Zm321.718-179.268H3145.46V265.243c0,26.594,9.217,39.868,27.833,39.868a94.212,94.212,0,0,0,21.217-2.235l1.323,36.31c-9.263,3.558-21.673,5.337-37.095,5.337-37.688,0-60.229-20.8-60.229-75.265V160.784h-31.392V124.93h31.392V85.519l46.95-14.186v53.552h52.608v35.9Zm253.14,179.268h-47.772V217.438c0-38.5-14.555-57.977-43.391-57.977-24.775,0-47.863,16.832-47.863,50.907V340.052H3264.41V26.219h47.772V155.447h.958c15.057-23.446,36.867-34.987,64.7-34.987,45.536,0,73.369,35.4,73.369,91.641V340.052Zm259.345-96.066h-143.5c.913,40.734,27.879,63.724,67.8,63.724,21.217,0,40.745-3.558,57.993-10.172l7.437,33.208c-20.35,8.849-44.3,13.274-72.182,13.274-67.3,0-107.133-42.513-107.133-108.427,0-65.96,40.791-115.543,101.749-115.543,54.981,0,89.475,40.734,89.475,102.269a92.114,92.114,0,0,1-1.642,21.667Zm-43.848-34.075c0-33.208-16.745-56.654-47.316-56.654-27.467,0-49.186,23.9-52.289,56.654h99.6Z" transform="translate(-174.806 -26.219)" fill="#fff"/></g></g></g></svg>