<svg xmlns="http://www.w3.org/2000/svg" width="206.199" height="24.012" viewBox="0 0 206.199 24.012"><g transform="translate(3.348 -0.994)"><path d="M3.528-339.988H-3.137a3.192,3.192,0,0,1-2.541-1.3l-4.969-7.812a2.655,2.655,0,0,1,0-2.6l4.282-6.709a3.956,3.956,0,0,0-.029,2.079,6.258,6.258,0,0,0,.762,2.012l3.071,4.841c-.028-.067-.05-.125-.067-.179l4.067,6.385h0l5.844-9.214v-.007a2.287,2.287,0,0,0,.1-2l3.081,4.833a5.684,5.684,0,0,1,.725,4.122c.453-1.109-.116-3.179-.725-4.122l-3.084-4.841v.005h0L1.322-364H7.993a3.148,3.148,0,0,1,2.528,1.294l4.989,7.825a2.648,2.648,0,0,1,0,2.595l-4.379,6.866h0l-.543.865a2.932,2.932,0,0,1-2.431,1.291c-.05,0-.1,0-.15,0H1.44l2.087,3.278Zm-6.16-9.672L-5.6-354.318c-.645-1.006-1.227-3.16-.671-4.244l-.1.15c.022-.057.043-.1.063-.143l.57-.866a2.94,2.94,0,0,1,2.439-1.293h6.7l-5.867,9.227a2.28,2.28,0,0,0-.171,1.827Z" transform="translate(7.64 364.994)" fill="#fff"/><text transform="translate(30.852 19.006)" fill="#fff" font-size="18" font-family="Roboto-Regular, Roboto"><tspan x="0" y="0">KDB Bank Uzbekistan</tspan></text></g></svg>