<svg xmlns="http://www.w3.org/2000/svg" width="252.295" height="29.592" viewBox="0 0 252.295 29.592"><g transform="translate(-3.712 -2.87)"><path d="M6-9.6l-1.9,1.97v5.239H2.063V-17.9H4.107v7.667L11-17.9h2.47l-6.1,6.847,6.58,8.657H11.5Zm9.732,7.209V-17.9h4.376A7.045,7.045,0,0,1,23.689-17a6.049,6.049,0,0,1,2.4,2.545,8.283,8.283,0,0,1,.857,3.791v.99A8.312,8.312,0,0,1,26.1-5.834,5.954,5.954,0,0,1,23.684-3.3a7.494,7.494,0,0,1-3.658.905ZM17.78-16.226v12.16H19.93a4.68,4.68,0,0,0,3.679-1.471,6.076,6.076,0,0,0,1.315-4.188v-.906a6.173,6.173,0,0,0-1.24-4.108,4.414,4.414,0,0,0-3.519-1.487ZM30.035-2.395V-17.9H35.1a5.884,5.884,0,0,1,3.8,1.044,3.761,3.761,0,0,1,1.272,3.088,3.149,3.149,0,0,1-.618,1.922,4,4,0,0,1-1.682,1.294,3.6,3.6,0,0,1,1.986,1.336,3.835,3.835,0,0,1,.729,2.348,4.147,4.147,0,0,1-1.352,3.28,5.592,5.592,0,0,1-3.823,1.193ZM32.08-9.646v5.58h3.375a3.25,3.25,0,0,0,2.252-.74,2.6,2.6,0,0,0,.825-2.039q0-2.8-3.045-2.8Zm0-1.64h3.088a3.237,3.237,0,0,0,2.146-.672,2.254,2.254,0,0,0,.8-1.825,2.216,2.216,0,0,0-.745-1.862,3.66,3.66,0,0,0-2.268-.582H32.08ZM49.01-2.395V-17.9h5.068a5.884,5.884,0,0,1,3.8,1.044,3.761,3.761,0,0,1,1.272,3.088,3.149,3.149,0,0,1-.618,1.922,4,4,0,0,1-1.682,1.294,3.6,3.6,0,0,1,1.986,1.336,3.835,3.835,0,0,1,.729,2.348,4.147,4.147,0,0,1-1.352,3.28,5.592,5.592,0,0,1-3.823,1.193Zm2.044-7.251v5.58H54.43a3.25,3.25,0,0,0,2.252-.74,2.6,2.6,0,0,0,.825-2.039q0-2.8-3.045-2.8Zm0-1.64h3.088a3.237,3.237,0,0,0,2.146-.672,2.254,2.254,0,0,0,.8-1.825,2.216,2.216,0,0,0-.745-1.862,3.66,3.66,0,0,0-2.268-.582H51.055ZM69.391-2.395a4.138,4.138,0,0,1-.277-1.214,4.4,4.4,0,0,1-3.28,1.427,4.067,4.067,0,0,1-2.8-.964,3.118,3.118,0,0,1-1.091-2.444,3.257,3.257,0,0,1,1.368-2.8,6.451,6.451,0,0,1,3.849-1h1.917v-.905a2.212,2.212,0,0,0-.618-1.645,2.482,2.482,0,0,0-1.821-.612,2.872,2.872,0,0,0-1.768.532,1.569,1.569,0,0,0-.713,1.288H62.182a2.719,2.719,0,0,1,.612-1.666,4.179,4.179,0,0,1,1.661-1.272,5.588,5.588,0,0,1,2.305-.469,4.555,4.555,0,0,1,3.12,1,3.591,3.591,0,0,1,1.171,2.742v5.3a6.483,6.483,0,0,0,.4,2.524v.17ZM66.122-3.9a3.462,3.462,0,0,0,1.757-.479,2.9,2.9,0,0,0,1.2-1.246V-7.985H67.538q-3.62,0-3.62,2.119a1.793,1.793,0,0,0,.618,1.448A2.374,2.374,0,0,0,66.122-3.9ZM76-13.916l.064,1.448a4.2,4.2,0,0,1,3.45-1.661q3.652,0,3.684,4.121v7.613h-1.97v-7.624a2.652,2.652,0,0,0-.57-1.842,2.283,2.283,0,0,0-1.741-.6,2.843,2.843,0,0,0-1.682.511A3.471,3.471,0,0,0,76.109-10.6v8.21H74.14V-13.916ZM89.388-7.729,88.152-6.441v4.046h-1.97V-18.75h1.97v9.892l1.054-1.267,3.588-3.791h2.4L90.708-9.1l5,6.708H93.4ZM113.846-17.9V-7.357a4.945,4.945,0,0,1-1.379,3.588A5.557,5.557,0,0,1,108.756-2.2l-.543.021a5.8,5.8,0,0,1-4.057-1.374,4.913,4.913,0,0,1-1.533-3.78V-17.9h2.023V-7.4a3.546,3.546,0,0,0,.926,2.614,3.561,3.561,0,0,0,2.641.932,3.584,3.584,0,0,0,2.657-.926,3.539,3.539,0,0,0,.921-2.609V-17.9ZM118.617-4h6.74v1.608H116.21V-3.843l6.357-8.444h-6.261v-1.629h8.731v1.395Zm18.709-4.025a6.85,6.85,0,0,1-1.214,4.243,3.879,3.879,0,0,1-3.258,1.6,4.016,4.016,0,0,1-3.375-1.544l-.1,1.331h-1.81V-18.75h1.97v6.1a3.993,3.993,0,0,1,3.29-1.48,3.9,3.9,0,0,1,3.3,1.587,7.056,7.056,0,0,1,1.2,4.344Zm-1.97-.224a5.323,5.323,0,0,0-.777-3.109,2.573,2.573,0,0,0-2.236-1.1,2.892,2.892,0,0,0-2.8,1.81v4.983a2.973,2.973,0,0,0,2.822,1.81,2.559,2.559,0,0,0,2.2-1.1A5.661,5.661,0,0,0,135.355-8.251Zm9.232,6.069a5.034,5.034,0,0,1-3.812-1.539,5.711,5.711,0,0,1-1.469-4.115V-8.2a6.914,6.914,0,0,1,.655-3.061,5.108,5.108,0,0,1,1.831-2.108,4.6,4.6,0,0,1,2.55-.761,4.315,4.315,0,0,1,3.493,1.48,6.408,6.408,0,0,1,1.246,4.238v.82h-7.805a4.1,4.1,0,0,0,1,2.753,3.129,3.129,0,0,0,2.422,1.049,3.431,3.431,0,0,0,1.768-.426,4.441,4.441,0,0,0,1.267-1.129l1.2.937A4.838,4.838,0,0,1,144.587-2.182Zm-.245-10.329a2.628,2.628,0,0,0-2,.868,4.218,4.218,0,0,0-1,2.433h5.771v-.149a3.752,3.752,0,0,0-.809-2.327A2.474,2.474,0,0,0,144.342-12.51Zm10.233,4.781L153.34-6.441v4.046h-1.97V-18.75h1.97v9.892l1.054-1.267,3.588-3.791h2.4L155.9-9.1l5,6.708h-2.311Zm9.977,5.335h-1.97V-13.916h1.97Zm-2.13-14.577a1.176,1.176,0,0,1,.293-.809,1.1,1.1,0,0,1,.868-.33,1.116,1.116,0,0,1,.873.33,1.163,1.163,0,0,1,.3.809,1.125,1.125,0,0,1-.3.8,1.137,1.137,0,0,1-.873.319,1.119,1.119,0,0,1-.868-.319A1.137,1.137,0,0,1,162.423-16.972Zm11.99,11.521a1.45,1.45,0,0,0-.6-1.24,5.791,5.791,0,0,0-2.1-.761,9.918,9.918,0,0,1-2.375-.767,3.378,3.378,0,0,1-1.3-1.065,2.547,2.547,0,0,1-.421-1.469,2.989,2.989,0,0,1,1.2-2.4,4.678,4.678,0,0,1,3.061-.98,4.814,4.814,0,0,1,3.178,1.012,3.213,3.213,0,0,1,1.219,2.587H174.3a1.778,1.778,0,0,0-.687-1.395,2.573,2.573,0,0,0-1.73-.586,2.693,2.693,0,0,0-1.682.469,1.475,1.475,0,0,0-.607,1.225,1.2,1.2,0,0,0,.564,1.075,6.944,6.944,0,0,0,2.039.692,10.625,10.625,0,0,1,2.39.788,3.487,3.487,0,0,1,1.358,1.1,2.71,2.71,0,0,1,.442,1.571,2.949,2.949,0,0,1-1.235,2.476,5.181,5.181,0,0,1-3.205.932,5.8,5.8,0,0,1-2.449-.49,3.983,3.983,0,0,1-1.666-1.368,3.3,3.3,0,0,1-.6-1.9h1.97a2.04,2.04,0,0,0,.793,1.571,3.077,3.077,0,0,0,1.954.58,3.177,3.177,0,0,0,1.794-.453A1.391,1.391,0,0,0,174.412-5.451Zm7.209-11.255v2.79h2.151v1.523h-2.151v7.154a1.6,1.6,0,0,0,.288,1.039,1.21,1.21,0,0,0,.98.346,4.769,4.769,0,0,0,.937-.128v1.588a5.744,5.744,0,0,1-1.512.212,2.453,2.453,0,0,1-1.991-.8,3.431,3.431,0,0,1-.671-2.268v-7.145h-2.1v-1.523h2.1v-2.79ZM193.185-2.395a4.138,4.138,0,0,1-.277-1.214,4.4,4.4,0,0,1-3.28,1.427,4.067,4.067,0,0,1-2.8-.964,3.118,3.118,0,0,1-1.091-2.444,3.257,3.257,0,0,1,1.368-2.8,6.451,6.451,0,0,1,3.849-1h1.917v-.905a2.212,2.212,0,0,0-.618-1.645,2.482,2.482,0,0,0-1.821-.612,2.872,2.872,0,0,0-1.768.532,1.569,1.569,0,0,0-.713,1.288h-1.981a2.719,2.719,0,0,1,.612-1.666,4.179,4.179,0,0,1,1.661-1.272,5.588,5.588,0,0,1,2.305-.469,4.555,4.555,0,0,1,3.12,1,3.591,3.591,0,0,1,1.171,2.742v5.3a6.483,6.483,0,0,0,.4,2.524v.17Zm-3.269-1.5a3.462,3.462,0,0,0,1.757-.479,2.9,2.9,0,0,0,1.2-1.246V-7.985h-1.544q-3.62,0-3.62,2.119a1.793,1.793,0,0,0,.618,1.448A2.374,2.374,0,0,0,189.916-3.9Zm9.881-10.02.064,1.448a4.2,4.2,0,0,1,3.45-1.661q3.652,0,3.684,4.121v7.613h-1.97v-7.624a2.652,2.652,0,0,0-.57-1.842,2.283,2.283,0,0,0-1.741-.6,2.843,2.843,0,0,0-1.682.511A3.471,3.471,0,0,0,199.9-10.6v8.21h-1.97V-13.916Z" transform="translate(49.012 28)" fill="#002d5e"/><g transform="translate(12.212 12.367)"><g transform="translate(-8.5 -1.507)"><path d="M65.159-162a3.067,3.067,0,0,0-.009,3.021l5.794,9.09a3.685,3.685,0,0,0,2.952,1.512h7.756l-10.613-16.67c-.78-1.212-1.4-3.715-.795-4.932Z" transform="translate(-64.757 169.975)" fill="#002d5e"/></g><g transform="translate(-2.414 -4.598)"><path d="M70.327-170.785a3.415,3.415,0,0,0-2.992,1.5l-.643,1c-.605,1.217.014,3.72.795,4.932l3.578,5.63a2.643,2.643,0,0,1,.115-2.348l6.785-10.722Z" transform="translate(-66.448 170.788)" fill="#002d5e"/></g><g transform="translate(7.49 -9.497)"><path d="M69.385-172.019,80-155.342c.772,1.2,1.4,3.716.786,4.935l5.093-7.983a3.073,3.073,0,0,0,.009-3.024l-5.8-9.1a3.652,3.652,0,0,0-2.943-1.509Z" transform="translate(-69.385 172.019)" fill="#002d5e"/></g><g transform="translate(6.774 2.238)"><path d="M76.226-166.107l-6.8,10.725h7.643a3.427,3.427,0,0,0,3-1.508l.635-.993c.614-1.219-.014-3.73-.786-4.935l-3.588-5.634a2.638,2.638,0,0,1-.109,2.344" transform="translate(-69.429 168.451)" fill="#002d5e"/></g></g></g></svg>