<svg xmlns="http://www.w3.org/2000/svg" xmlns:xlink="http://www.w3.org/1999/xlink" width="26.874" height="15.679" viewBox="0 0 26.874 15.679"><defs><clipPath id="a"><rect width="26.874" height="15.679" fill="none"/></clipPath></defs><g transform="translate(-616.883 -370.523)"><g transform="translate(616.883 370.523)"><g clip-path="url(#a)"><rect width="26.874" height="5.02" fill="#4497b1"/><rect width="26.874" height="0.313" transform="translate(0 5.02)" fill="#bc0030"/><rect width="26.874" height="5.017" transform="translate(0 5.333)" fill="#fff"/><rect width="26.874" height="0.313" transform="translate(0 10.35)" fill="#bc0030"/><rect width="26.874" height="5.017" transform="translate(0 10.662)" fill="#50b63f"/><g clip-path="url(#a)"><path d="M623.779,373.191a1.881,1.881,0,1,1-1.882-1.882,1.882,1.882,0,0,1,1.882,1.882" transform="translate(-617.507 -370.68)" fill="#fff"/><path d="M624.6,373.269a1.567,1.567,0,1,1-1.565-1.57,1.565,1.565,0,0,1,1.565,1.57" transform="translate(-617.796 -370.758)" fill="#4497b1"/><path d="M628.288,371.309l-.116.36.178.056Z" transform="translate(-619.133 -370.68)" fill="#fff"/><path d="M628.3,371.309l.117.36-.18.056Z" transform="translate(-619.146 -370.68)" fill="#fff"/><path d="M628.672,371.633h-.378v.191Z" transform="translate(-619.157 -370.745)" fill="#fff"/><path d="M628.662,371.633l-.308.222-.108-.153Z" transform="translate(-619.148 -370.745)" fill="#fff"/><path d="M627.871,371.633l.3.222.111-.153Z" transform="translate(-619.073 -370.745)" fill="#fff"/><path d="M627.871,371.633h.377v.191Z" transform="translate(-619.073 -370.745)" fill="#fff"/><path d="M628.519,372.071l-.114-.36-.18.056Z" transform="translate(-619.143 -370.76)" fill="#fff"/><path d="M628.517,372.067l-.3-.222.108-.153Z" transform="translate(-619.141 -370.756)" fill="#fff"/><path d="M628.039,372.067l.306-.222-.111-.153Z" transform="translate(-619.106 -370.756)" fill="#fff"/><path d="M628.039,372.071l.117-.36.178.056Z" transform="translate(-619.106 -370.76)" fill="#fff"/><path d="M630.168,371.309l-.117.36.18.056Z" transform="translate(-619.507 -370.68)" fill="#fff"/><path d="M630.181,371.309l.114.36-.178.056Z" transform="translate(-619.52 -370.68)" fill="#fff"/><path d="M630.549,371.633h-.377v.191Z" transform="translate(-619.531 -370.745)" fill="#fff"/><path d="M630.539,371.633l-.3.222-.111-.153Z" transform="translate(-619.522 -370.745)" fill="#fff"/><path d="M629.75,371.633l.3.222.111-.153Z" transform="translate(-619.447 -370.745)" fill="#fff"/><path d="M629.75,371.633h.374v.191Z" transform="translate(-619.447 -370.745)" fill="#fff"/><path d="M630.4,372.071l-.116-.36-.177.056Z" transform="translate(-619.518 -370.76)" fill="#fff"/><path d="M630.4,372.067l-.3-.222.111-.153Z" transform="translate(-619.515 -370.756)" fill="#fff"/><path d="M629.918,372.067l.306-.222-.113-.153Z" transform="translate(-619.481 -370.756)" fill="#fff"/><path d="M629.918,372.071l.117-.36.18.056Z" transform="translate(-619.481 -370.76)" fill="#fff"/><path d="M632.049,371.309l-.117.36.177.056Z" transform="translate(-619.882 -370.68)" fill="#fff"/><path d="M632.062,371.309l.116.36-.182.056Z" transform="translate(-619.895 -370.68)" fill="#fff"/><path d="M632.43,371.633h-.375v.191Z" transform="translate(-619.907 -370.745)" fill="#fff"/><path d="M632.42,371.633l-.3.222L632,371.7Z" transform="translate(-619.896 -370.745)" fill="#fff"/><path d="M631.629,371.633l.3.222.113-.153Z" transform="translate(-619.822 -370.745)" fill="#fff"/><path d="M631.629,371.633H632v.191Z" transform="translate(-619.822 -370.745)" fill="#fff"/><path d="M632.278,372.071l-.117-.36-.178.056Z" transform="translate(-619.892 -370.76)" fill="#fff"/><path d="M632.276,372.067l-.3-.222.108-.153Z" transform="translate(-619.89 -370.756)" fill="#fff"/><path d="M631.8,372.067l.3-.222-.109-.153Z" transform="translate(-619.856 -370.756)" fill="#fff"/><path d="M631.8,372.071l.116-.36.18.056Z" transform="translate(-619.856 -370.76)" fill="#fff"/><path d="M626.408,373.188l-.117.357.178.059Z" transform="translate(-618.758 -371.054)" fill="#fff"/><path d="M626.422,373.188l.116.357-.178.059Z" transform="translate(-618.771 -371.054)" fill="#fff"/><path d="M626.789,373.512h-.375v.188Z" transform="translate(-618.782 -371.119)" fill="#fff"/><path d="M626.78,373.512l-.3.219-.111-.15Z" transform="translate(-618.773 -371.119)" fill="#fff"/><path d="M625.99,373.512l.3.219.109-.15Z" transform="translate(-618.698 -371.119)" fill="#fff"/><path d="M625.99,373.512h.377v.188Z" transform="translate(-618.698 -371.119)" fill="#fff"/><path d="M626.638,373.946l-.114-.357-.178.059Z" transform="translate(-618.769 -371.135)" fill="#fff"/><path d="M626.636,373.943l-.3-.219.109-.15Z" transform="translate(-618.766 -371.131)" fill="#fff"/><path d="M626.16,373.943l.3-.219-.111-.15Z" transform="translate(-618.732 -371.131)" fill="#fff"/><path d="M626.16,373.946l.116-.357.18.059Z" transform="translate(-618.732 -371.135)" fill="#fff"/><path d="M628.288,373.188l-.116.357.178.059Z" transform="translate(-619.133 -371.054)" fill="#fff"/><path d="M628.3,373.188l.117.357-.18.059Z" transform="translate(-619.146 -371.054)" fill="#fff"/><path d="M628.672,373.512h-.378v.188Z" transform="translate(-619.157 -371.119)" fill="#fff"/><path d="M628.662,373.512l-.308.219-.108-.15Z" transform="translate(-619.148 -371.119)" fill="#fff"/><path d="M627.871,373.512l.3.219.111-.15Z" transform="translate(-619.073 -371.119)" fill="#fff"/><path d="M627.871,373.512h.377v.188Z" transform="translate(-619.073 -371.119)" fill="#fff"/><path d="M628.519,373.946l-.114-.357-.18.059Z" transform="translate(-619.143 -371.135)" fill="#fff"/><path d="M628.517,373.943l-.3-.219.108-.15Z" transform="translate(-619.141 -371.131)" fill="#fff"/><path d="M628.039,373.943l.306-.219-.111-.15Z" transform="translate(-619.106 -371.131)" fill="#fff"/><path d="M628.039,373.946l.117-.357.178.059Z" transform="translate(-619.106 -371.135)" fill="#fff"/><path d="M630.168,373.188l-.117.357.18.059Z" transform="translate(-619.507 -371.054)" fill="#fff"/><path d="M630.181,373.188l.114.357-.178.059Z" transform="translate(-619.52 -371.054)" fill="#fff"/><path d="M630.549,373.512h-.377v.188Z" transform="translate(-619.531 -371.119)" fill="#fff"/><path d="M630.539,373.512l-.3.219-.111-.15Z" transform="translate(-619.522 -371.119)" fill="#fff"/><path d="M629.75,373.512l.3.219.111-.15Z" transform="translate(-619.447 -371.119)" fill="#fff"/><path d="M629.75,373.512h.374v.188Z" transform="translate(-619.447 -371.119)" fill="#fff"/><path d="M630.4,373.946l-.116-.357-.177.059Z" transform="translate(-619.518 -371.135)" fill="#fff"/><path d="M630.4,373.943l-.3-.219.111-.15Z" transform="translate(-619.515 -371.131)" fill="#fff"/><path d="M629.918,373.943l.306-.219-.113-.15Z" transform="translate(-619.481 -371.131)" fill="#fff"/><path d="M629.918,373.946l.117-.357.18.059Z" transform="translate(-619.481 -371.135)" fill="#fff"/><path d="M632.049,373.188l-.117.357.177.059Z" transform="translate(-619.882 -371.054)" fill="#fff"/><path d="M632.062,373.188l.116.357L632,373.6Z" transform="translate(-619.895 -371.054)" fill="#fff"/><path d="M632.43,373.512h-.375v.188Z" transform="translate(-619.907 -371.119)" fill="#fff"/><path d="M632.42,373.512l-.3.219-.111-.15Z" transform="translate(-619.896 -371.119)" fill="#fff"/><path d="M631.629,373.512l.3.219.113-.15Z" transform="translate(-619.822 -371.119)" fill="#fff"/><path d="M631.629,373.512H632v.188Z" transform="translate(-619.822 -371.119)" fill="#fff"/><path d="M632.278,373.946l-.117-.357-.178.059Z" transform="translate(-619.892 -371.135)" fill="#fff"/><path d="M632.276,373.943l-.3-.219.108-.15Z" transform="translate(-619.89 -371.131)" fill="#fff"/><path d="M631.8,373.943l.3-.219-.109-.15Z" transform="translate(-619.856 -371.131)" fill="#fff"/><path d="M631.8,373.946l.116-.357.18.059Z" transform="translate(-619.856 -371.135)" fill="#fff"/><path d="M624.53,375.066l-.116.36.178.056Z" transform="translate(-618.384 -371.429)" fill="#fff"/><path d="M624.543,375.066l.116.36-.178.056Z" transform="translate(-618.397 -371.429)" fill="#fff"/><path d="M624.91,375.395h-.377v.185Z" transform="translate(-618.408 -371.494)" fill="#fff"/><path d="M624.9,375.395l-.3.219-.109-.153Z" transform="translate(-618.398 -371.494)" fill="#fff"/><path d="M624.109,375.395l.307.219.111-.153Z" transform="translate(-618.323 -371.494)" fill="#fff"/><path d="M624.109,375.395h.377v.185Z" transform="translate(-618.323 -371.494)" fill="#fff"/><path d="M624.76,375.829l-.116-.357-.18.056Z" transform="translate(-618.394 -371.51)" fill="#fff"/><path d="M624.758,375.825l-.3-.219.111-.156Z" transform="translate(-618.392 -371.505)" fill="#fff"/><path d="M624.281,375.825l.3-.219-.113-.156Z" transform="translate(-618.357 -371.505)" fill="#fff"/><path d="M624.281,375.829l.116-.357.178.056Z" transform="translate(-618.357 -371.51)" fill="#fff"/><path d="M626.408,375.066l-.117.36.178.056Z" transform="translate(-618.758 -371.429)" fill="#fff"/><path d="M626.422,375.066l.116.36-.178.056Z" transform="translate(-618.771 -371.429)" fill="#fff"/><path d="M626.789,375.395h-.375v.185Z" transform="translate(-618.782 -371.494)" fill="#fff"/><path d="M626.78,375.395l-.3.219-.111-.153Z" transform="translate(-618.773 -371.494)" fill="#fff"/><path d="M625.99,375.395l.3.219.109-.153Z" transform="translate(-618.698 -371.494)" fill="#fff"/><path d="M625.99,375.395h.377v.185Z" transform="translate(-618.698 -371.494)" fill="#fff"/><path d="M626.638,375.829l-.114-.357-.178.056Z" transform="translate(-618.769 -371.51)" fill="#fff"/><path d="M626.636,375.825l-.3-.219.109-.156Z" transform="translate(-618.766 -371.505)" fill="#fff"/><path d="M626.16,375.825l.3-.219-.111-.156Z" transform="translate(-618.732 -371.505)" fill="#fff"/><path d="M626.16,375.829l.116-.357.18.056Z" transform="translate(-618.732 -371.51)" fill="#fff"/><path d="M628.288,375.066l-.116.36.178.056Z" transform="translate(-619.133 -371.429)" fill="#fff"/><path d="M628.3,375.066l.117.36-.18.056Z" transform="translate(-619.146 -371.429)" fill="#fff"/><path d="M628.672,375.395h-.378v.185Z" transform="translate(-619.157 -371.494)" fill="#fff"/><path d="M628.662,375.395l-.308.219-.108-.153Z" transform="translate(-619.148 -371.494)" fill="#fff"/><path d="M627.871,375.395l.3.219.111-.153Z" transform="translate(-619.073 -371.494)" fill="#fff"/><path d="M627.871,375.395h.377v.185Z" transform="translate(-619.073 -371.494)" fill="#fff"/><path d="M628.519,375.829l-.114-.357-.18.056Z" transform="translate(-619.143 -371.51)" fill="#fff"/><path d="M628.517,375.825l-.3-.219.108-.156Z" transform="translate(-619.141 -371.505)" fill="#fff"/><path d="M628.039,375.825l.306-.219-.111-.156Z" transform="translate(-619.106 -371.505)" fill="#fff"/><path d="M628.039,375.829l.117-.357.178.056Z" transform="translate(-619.106 -371.51)" fill="#fff"/><path d="M630.168,375.066l-.117.36.18.056Z" transform="translate(-619.507 -371.429)" fill="#fff"/><path d="M630.181,375.066l.114.36-.178.056Z" transform="translate(-619.52 -371.429)" fill="#fff"/><path d="M630.549,375.395h-.377v.185Z" transform="translate(-619.531 -371.494)" fill="#fff"/><path d="M630.539,375.395l-.3.219-.111-.153Z" transform="translate(-619.522 -371.494)" fill="#fff"/><path d="M629.75,375.395l.3.219.111-.153Z" transform="translate(-619.447 -371.494)" fill="#fff"/><path d="M629.75,375.395h.374v.185Z" transform="translate(-619.447 -371.494)" fill="#fff"/><path d="M630.4,375.829l-.116-.357-.177.056Z" transform="translate(-619.518 -371.51)" fill="#fff"/><path d="M630.4,375.825l-.3-.219.111-.156Z" transform="translate(-619.515 -371.505)" fill="#fff"/><path d="M629.918,375.825l.306-.219-.113-.156Z" transform="translate(-619.481 -371.505)" fill="#fff"/><path d="M629.918,375.829l.117-.357.18.056Z" transform="translate(-619.481 -371.51)" fill="#fff"/><path d="M632.049,375.066l-.117.36.177.056Z" transform="translate(-619.882 -371.429)" fill="#fff"/><path d="M632.062,375.066l.116.36-.182.056Z" transform="translate(-619.895 -371.429)" fill="#fff"/><path d="M632.43,375.395h-.375v.185Z" transform="translate(-619.907 -371.494)" fill="#fff"/><path d="M632.42,375.395l-.3.219L632,375.46Z" transform="translate(-619.896 -371.494)" fill="#fff"/><path d="M631.629,375.395l.3.219.113-.153Z" transform="translate(-619.822 -371.494)" fill="#fff"/><path d="M631.629,375.395H632v.185Z" transform="translate(-619.822 -371.494)" fill="#fff"/><path d="M632.278,375.829l-.117-.357-.178.056Z" transform="translate(-619.892 -371.51)" fill="#fff"/><path d="M632.276,375.825l-.3-.219.108-.156Z" transform="translate(-619.89 -371.505)" fill="#fff"/><path d="M631.8,375.825l.3-.219-.109-.156Z" transform="translate(-619.856 -371.505)" fill="#fff"/><path d="M631.8,375.829l.116-.357.18.056Z" transform="translate(-619.856 -371.51)" fill="#fff"/></g></g></g></g></svg>