<svg xmlns="http://www.w3.org/2000/svg" width="40.019" height="40" viewBox="0 0 40.019 40"><path d="M4848.818,18319.012a1.819,1.819,0,0,1,0-3.639h36.364a1.819,1.819,0,1,1,0,3.639Zm2.275-4.727a1.819,1.819,0,1,1,0-3.639h.455v-16.365h-.455a.908.908,0,1,1,0-1.816h31.818a.908.908,0,1,1,0,1.816h-.454v16.365h.454a1.819,1.819,0,0,1,0,3.639Zm22.271-3.639h5.455v-16.365h-5.455Zm-9.089,0h5.451v-16.365h-5.451Zm-9.093,0h5.455v-16.365h-5.455Zm30-19.818h-36.364a1.816,1.816,0,0,1-.744-3.473l18.182-8.186a1.837,1.837,0,0,1,1.492,0l18.042,8.123a1.816,1.816,0,0,1-.587,3.535Z" transform="translate(-4847 -18279.012)" fill="#ffc409"/></svg>